<svg width="80" height="80" viewBox="0 0 80 80" fill="none" xmlns="http://www.w3.org/2000/svg">
<rect width="80" height="80" rx="30" fill="#FEB647"/>
<path d="M51.9287 21H28.0713C27.2567 21 26.4755 21.3161 25.8995 21.8787C25.3236 22.4413 25 23.2044 25 24V56C25 56.7957 25.3236 57.5587 25.8995 58.1213C26.4755 58.6839 27.2567 59 28.0713 59H51.9287C52.7433 59 53.5245 58.6839 54.1005 58.1213C54.6764 57.5587 55 56.7957 55 56V24C55 23.2044 54.6764 22.4413 54.1005 21.8787C53.5245 21.3161 52.7433 21 51.9287 21ZM44.525 23H49.0561V32.26L47.5061 30.78C47.3148 30.5968 47.0575 30.4941 46.7895 30.4941C46.5215 30.4941 46.2643 30.5968 46.0729 30.78L44.5229 32.26L44.525 23ZM52.9525 56C52.9525 56.2652 52.8446 56.5196 52.6526 56.7071C52.4607 56.8946 52.2003 57 51.9287 57H28.0713C27.7997 57 27.5393 56.8946 27.3474 56.7071C27.1554 56.5196 27.0475 56.2652 27.0475 56V24C27.0475 23.7348 27.1554 23.4804 27.3474 23.2929C27.5393 23.1054 27.7997 23 28.0713 23H42.4775V34.636C42.4771 34.8331 42.5364 35.0259 42.6478 35.1902C42.7592 35.3545 42.9179 35.483 43.1039 35.5595C43.2898 35.636 43.4947 35.6571 43.6929 35.6202C43.8911 35.5833 44.0738 35.49 44.2179 35.352L46.7895 32.892L49.3632 35.352C49.5549 35.5345 49.8122 35.6365 50.0799 35.636C50.2163 35.6366 50.3515 35.6101 50.4771 35.558C50.6628 35.4816 50.8213 35.3534 50.9328 35.1894C51.0443 35.0254 51.1037 34.8329 51.1036 34.636V23H51.9226C52.1941 23 52.4545 23.1054 52.6465 23.2929C52.8385 23.4804 52.9464 23.7348 52.9464 24L52.9525 56ZM48.4828 47.162C48.4828 47.4272 48.3749 47.6816 48.183 47.8691C47.991 48.0566 47.7306 48.162 47.459 48.162H32.541C32.2694 48.162 32.009 48.0566 31.817 47.8691C31.6251 47.6816 31.5172 47.4272 31.5172 47.162C31.5172 46.8968 31.6251 46.6424 31.817 46.4549C32.009 46.2674 32.2694 46.162 32.541 46.162H47.459C47.7306 46.162 47.991 46.2674 48.183 46.4549C48.3749 46.6424 48.4828 46.8968 48.4828 47.162ZM48.4828 52.018C48.4828 52.2832 48.3749 52.5376 48.183 52.7251C47.991 52.9126 47.7306 53.018 47.459 53.018H32.541C32.2694 53.018 32.009 52.9126 31.817 52.7251C31.6251 52.5376 31.5172 52.2832 31.5172 52.018C31.5172 51.7528 31.6251 51.4984 31.817 51.3109C32.009 51.1234 32.2694 51.018 32.541 51.018H47.459C47.7306 51.018 47.991 51.1234 48.183 51.3109C48.3749 51.4984 48.4828 51.7528 48.4828 52.018Z" fill="white"/>
</svg>
