<svg width="80" height="80" viewBox="0 0 80 80" fill="none" xmlns="http://www.w3.org/2000/svg">
<rect width="80" height="80" rx="30" fill="#00B88C"/>
<mask id="path-2-outside-1_0_108" maskUnits="userSpaceOnUse" x="21.5" y="21.5237" width="37" height="37" fill="black">
<rect fill="white" x="21.5" y="21.5237" width="37" height="37"/>
<path fill-rule="evenodd" clip-rule="evenodd" d="M53.6892 36.2104C52.922 36.1127 52.1853 35.8379 51.5385 35.4046C50.7354 34.8666 50.1054 34.1074 49.7249 33.2188C48.8895 31.3235 47.5184 29.7137 45.7802 28.5873C44.0419 27.461 42.0124 26.8673 39.9411 26.8793C37.8699 26.8913 35.8474 27.5083 34.1222 28.6546C32.3971 29.8009 31.0446 31.4265 30.2312 33.3313C29.8802 34.1862 29.2853 34.919 28.5206 35.438C27.863 35.8844 27.1049 36.1557 26.3178 36.2297C26.2751 36.6517 26.2524 37.0756 26.25 37.5V41.25H26.3294C26.4401 40.8212 26.6638 40.4257 26.9822 40.1072C27.4511 39.6384 28.087 39.375 28.75 39.375C29.413 39.375 30.0489 39.6384 30.5178 40.1072C30.9866 40.5761 31.25 41.212 31.25 41.875V50.625C31.25 51.288 30.9866 51.9239 30.5178 52.3928C30.0489 52.8616 29.413 53.125 28.75 53.125C28.087 53.125 27.4511 52.8616 26.9822 52.3928C26.6638 52.0743 26.4401 51.6788 26.3294 51.25H25C24.337 51.25 23.7011 50.9866 23.2322 50.5178C22.7634 50.0489 22.5 49.413 22.5 48.75V43.75C22.5 43.087 22.7634 42.4511 23.2322 41.9822C23.7011 41.5134 24.337 41.25 25 41.25V37.5C25.0001 36.8754 25.0401 36.2514 25.1197 35.6319C25.1193 35.6025 25.1211 35.5731 25.1249 35.5438C25.6048 31.9403 27.3769 28.6337 30.1119 26.2388C32.8468 23.8439 36.3584 22.5237 39.9937 22.5237C43.629 22.5237 47.1406 23.8439 49.8755 26.2388C52.5716 28.5997 54.332 31.8465 54.8412 35.3903C54.8609 35.4395 54.8744 35.491 54.8813 35.5438C54.9643 36.1925 55.004 36.846 55 37.5V41.25C55.663 41.25 56.2989 41.5134 56.7678 41.9822C57.2366 42.4511 57.5 43.087 57.5 43.75V48.75C57.5 49.413 57.2366 50.0489 56.7678 50.5178C56.4493 50.8362 56.0538 51.0599 55.625 51.1706V51.875C55.625 53.0353 55.1641 54.1481 54.3436 54.9686C53.5231 55.7891 52.4103 56.25 51.25 56.25H43.0178C42.9254 56.5112 42.7754 56.7512 42.5758 56.9508C42.2242 57.3025 41.7473 57.5 41.25 57.5H38.75C38.2527 57.5 37.7758 57.3025 37.4242 56.9508C37.0725 56.5992 36.875 56.1223 36.875 55.625C36.875 55.1277 37.0725 54.6508 37.4242 54.2992C37.7758 53.9475 38.2527 53.75 38.75 53.75H41.25C41.7473 53.75 42.2242 53.9475 42.5758 54.2992C42.7755 54.4988 42.9254 54.7388 43.0178 55H51.25C52.0788 55 52.8737 54.6708 53.4597 54.0847C54.0458 53.4987 54.375 52.7038 54.375 51.875V51.25H53.6706C53.5599 51.6788 53.3362 52.0743 53.0178 52.3928C52.5489 52.8616 51.913 53.125 51.25 53.125C50.587 53.125 49.9511 52.8616 49.4822 52.3928C49.0134 51.9239 48.75 51.288 48.75 50.625V41.875C48.75 41.212 49.0134 40.5761 49.4822 40.1072C49.9511 39.6384 50.587 39.375 51.25 39.375C51.913 39.375 52.5489 39.6384 53.0178 40.1072C53.3362 40.4257 53.5599 40.8212 53.6706 41.25H53.75V37.5C53.7505 37.0693 53.7302 36.639 53.6892 36.2104ZM31.2243 26.9137C33.6915 24.8688 36.7954 23.7498 39.9999 23.75C41.8105 23.7395 43.605 24.0893 45.2789 24.7793C46.9528 25.4693 48.4727 26.4855 49.7499 27.7688C51.6953 29.7175 53.0142 32.2029 53.5374 34.9063C52.9555 34.7713 52.4135 34.5012 51.9553 34.118C51.4971 33.7347 51.1356 33.2489 50.8999 32.7C50.2964 31.3521 49.4488 30.1273 48.3999 29.0875C47.0256 27.7147 45.3356 26.6999 43.4778 26.1322C41.6201 25.5645 39.6515 25.4612 37.7445 25.8313C35.8376 26.2015 34.0506 27.0338 32.5402 28.2553C31.0297 29.4768 29.842 31.0502 29.0812 32.8375C28.8591 33.3779 28.5055 33.8541 28.0525 34.223C27.5995 34.592 27.0615 34.8419 26.4874 34.95C27.0817 31.8011 28.7572 28.9587 31.2243 26.9137ZM53.75 42.5H54.3712L54.375 42.5L54.3788 42.5H55C55.3315 42.5 55.6495 42.6317 55.8839 42.8661C56.1183 43.1005 56.25 43.4185 56.25 43.75V48.75C56.25 49.0815 56.1183 49.3995 55.8839 49.6339C55.6495 49.8683 55.3315 50 55 50H53.75V42.5ZM25 42.5H25.6212L25.625 42.5L25.6288 42.5H26.25V50H25C24.6685 50 24.3505 49.8683 24.1161 49.6339C23.8817 49.3995 23.75 49.0815 23.75 48.75V43.75C23.75 43.4185 23.8817 43.1005 24.1161 42.8661C24.3505 42.6317 24.6685 42.5 25 42.5ZM27.5 50.625V41.875C27.5 41.5435 27.6317 41.2255 27.8661 40.9911C28.1005 40.7567 28.4185 40.625 28.75 40.625C29.0815 40.625 29.3995 40.7567 29.6339 40.9911C29.8683 41.2255 30 41.5435 30 41.875V50.625C30 50.9565 29.8683 51.2745 29.6339 51.5089C29.3995 51.7433 29.0815 51.875 28.75 51.875C28.4185 51.875 28.1005 51.7433 27.8661 51.5089C27.6317 51.2745 27.5 50.9565 27.5 50.625ZM52.5 50.625V41.875C52.5 41.5435 52.3683 41.2255 52.1339 40.9911C51.8995 40.7567 51.5815 40.625 51.25 40.625C50.9185 40.625 50.6005 40.7567 50.3661 40.9911C50.1317 41.2255 50 41.5435 50 41.875V50.625C50 50.9565 50.1317 51.2745 50.3661 51.5089C50.6005 51.7433 50.9185 51.875 51.25 51.875C51.5815 51.875 51.8995 51.7433 52.1339 51.5089C52.3683 51.2745 52.5 50.9565 52.5 50.625ZM38.3081 55.1831C38.4253 55.0658 38.5842 55 38.75 55H41.25C41.4158 55 41.5747 55.0658 41.6919 55.1831C41.8092 55.3003 41.875 55.4592 41.875 55.625C41.875 55.7908 41.8092 55.9497 41.6919 56.0669C41.5747 56.1842 41.4158 56.25 41.25 56.25H38.75C38.5842 56.25 38.4253 56.1842 38.3081 56.0669C38.1908 55.9497 38.125 55.7908 38.125 55.625C38.125 55.4592 38.1908 55.3003 38.3081 55.1831ZM38.75 40H35.625C35.4593 40 35.3003 39.9342 35.1831 39.8169C35.0659 39.6997 35 39.5408 35 39.375V38.75C34.9995 38.6677 35.0153 38.5862 35.0464 38.5101C35.0775 38.4339 35.1233 38.3647 35.1813 38.3063L37.9188 35.5688C38.0162 35.4709 38.0824 35.3464 38.1093 35.2109C38.1361 35.0754 38.1222 34.9351 38.0694 34.8074C38.0166 34.6798 37.9273 34.5707 37.8126 34.4937C37.698 34.4168 37.5631 34.3755 37.425 34.375H36.95C36.7644 34.375 36.5863 34.4488 36.455 34.58C36.3238 34.7113 36.25 34.8893 36.25 35.075V35.625C36.25 35.7908 36.1842 35.9497 36.067 36.0669C35.9497 36.1842 35.7908 36.25 35.625 36.25C35.4593 36.25 35.3003 36.1842 35.1831 36.0669C35.0659 35.9497 35 35.7908 35 35.625V35.075C35 34.8189 35.0504 34.5654 35.1484 34.3288C35.2464 34.0922 35.3901 33.8772 35.5712 33.6961C35.7522 33.5151 35.9672 33.3714 36.2038 33.2734C36.4404 33.1754 36.6939 33.125 36.95 33.125H37.425C37.9422 33.125 38.4382 33.3304 38.8039 33.6961C39.1696 34.0618 39.375 34.5578 39.375 35.075C39.3767 35.3315 39.3272 35.5857 39.2296 35.8228C39.1319 36.06 38.988 36.2753 38.8063 36.4563L36.5063 38.75H38.75C38.9158 38.75 39.0747 38.8158 39.192 38.9331C39.3092 39.0503 39.375 39.2092 39.375 39.375C39.375 39.5408 39.3092 39.6997 39.192 39.8169C39.0747 39.9342 38.9158 40 38.75 40ZM43.125 37.5C42.462 37.5 41.8261 37.2366 41.3572 36.7678C40.8884 36.2989 40.625 35.663 40.625 35V33.75C40.625 33.5842 40.6909 33.4253 40.8081 33.3081C40.9253 33.1908 41.0842 33.125 41.25 33.125C41.4158 33.125 41.5747 33.1908 41.692 33.3081C41.8092 33.4253 41.875 33.5842 41.875 33.75V35C41.875 35.3315 42.0067 35.6495 42.2411 35.8839C42.4755 36.1183 42.7935 36.25 43.125 36.25H43.75V33.75C43.75 33.5842 43.8159 33.4253 43.9331 33.3081C44.0503 33.1908 44.2092 33.125 44.375 33.125C44.5408 33.125 44.6997 33.1908 44.817 33.3081C44.9342 33.4253 45 33.5842 45 33.75V36.875L45 36.8788V39.375C45 39.5408 44.9342 39.6997 44.8169 39.8169C44.6997 39.9342 44.5408 40 44.375 40C44.2092 40 44.0503 39.9342 43.9331 39.8169C43.8158 39.6997 43.75 39.5408 43.75 39.375V37.5H43.125ZM39.7452 44.996C38.2274 44.9484 36.7514 44.4762 35.486 43.6307C34.1498 42.7379 33.1084 41.469 32.4935 39.9843C31.8785 38.4997 31.7176 36.866 32.0311 35.2899C32.3446 33.7138 33.1185 32.2661 34.2548 31.1298C35.3911 29.9935 36.8388 29.2196 38.4149 28.9061C39.991 28.5926 41.6247 28.7535 43.1093 29.3685C44.594 29.9834 45.8629 31.0248 46.7557 32.361C47.6485 33.6971 48.125 35.268 48.125 36.875C48.125 37.0408 48.0592 37.1997 47.9419 37.3169C47.8247 37.4342 47.6658 37.5 47.5 37.5C47.3342 37.5 47.1753 37.4342 47.0581 37.3169C46.9409 37.1997 46.875 37.0408 46.875 36.875C46.875 35.5153 46.4718 34.186 45.7164 33.0555C44.9609 31.9249 43.8872 31.0437 42.631 30.5233C41.3747 30.003 39.9924 29.8668 38.6588 30.1321C37.3251 30.3974 36.1001 31.0522 35.1386 32.0136C34.1772 32.9751 33.5224 34.2001 33.2571 35.5338C32.9918 36.8674 33.128 38.2497 33.6483 39.506C34.1687 40.7622 35.0499 41.8359 36.1805 42.5914C37.2378 43.2978 38.4689 43.6963 39.7362 43.7449L38.9315 42.9437C38.8138 42.8261 38.7476 42.6664 38.7476 42.5C38.7476 42.3336 38.8138 42.1739 38.9315 42.0562C39.0491 41.9386 39.2088 41.8724 39.3752 41.8724C39.5416 41.8724 39.7013 41.9386 39.819 42.0562L41.694 43.9312C41.7525 43.9893 41.799 44.0585 41.8308 44.1346C41.8625 44.2108 41.8788 44.2925 41.8788 44.375C41.8788 44.4575 41.8625 44.5392 41.8308 44.6154C41.799 44.6915 41.7525 44.7606 41.694 44.8187L39.819 46.6937C39.7606 46.7517 39.6913 46.7975 39.6151 46.8286C39.539 46.8597 39.4575 46.8755 39.3752 46.875C39.293 46.8755 39.2114 46.8597 39.1353 46.8286C39.0591 46.7975 38.9899 46.7517 38.9315 46.6937C38.8729 46.6356 38.8264 46.5665 38.7946 46.4904C38.7629 46.4142 38.7466 46.3325 38.7466 46.25C38.7466 46.1675 38.7629 46.0858 38.7946 46.0096C38.8264 45.9335 38.8729 45.8643 38.9315 45.8062L39.7452 44.996Z"/>
</mask>
<path fill-rule="evenodd" clip-rule="evenodd" d="M53.6892 36.2104C52.922 36.1127 52.1853 35.8379 51.5385 35.4046C50.7354 34.8666 50.1054 34.1074 49.7249 33.2188C48.8895 31.3235 47.5184 29.7137 45.7802 28.5873C44.0419 27.461 42.0124 26.8673 39.9411 26.8793C37.8699 26.8913 35.8474 27.5083 34.1222 28.6546C32.3971 29.8009 31.0446 31.4265 30.2312 33.3313C29.8802 34.1862 29.2853 34.919 28.5206 35.438C27.863 35.8844 27.1049 36.1557 26.3178 36.2297C26.2751 36.6517 26.2524 37.0756 26.25 37.5V41.25H26.3294C26.4401 40.8212 26.6638 40.4257 26.9822 40.1072C27.4511 39.6384 28.087 39.375 28.75 39.375C29.413 39.375 30.0489 39.6384 30.5178 40.1072C30.9866 40.5761 31.25 41.212 31.25 41.875V50.625C31.25 51.288 30.9866 51.9239 30.5178 52.3928C30.0489 52.8616 29.413 53.125 28.75 53.125C28.087 53.125 27.4511 52.8616 26.9822 52.3928C26.6638 52.0743 26.4401 51.6788 26.3294 51.25H25C24.337 51.25 23.7011 50.9866 23.2322 50.5178C22.7634 50.0489 22.5 49.413 22.5 48.75V43.75C22.5 43.087 22.7634 42.4511 23.2322 41.9822C23.7011 41.5134 24.337 41.25 25 41.25V37.5C25.0001 36.8754 25.0401 36.2514 25.1197 35.6319C25.1193 35.6025 25.1211 35.5731 25.1249 35.5438C25.6048 31.9403 27.3769 28.6337 30.1119 26.2388C32.8468 23.8439 36.3584 22.5237 39.9937 22.5237C43.629 22.5237 47.1406 23.8439 49.8755 26.2388C52.5716 28.5997 54.332 31.8465 54.8412 35.3903C54.8609 35.4395 54.8744 35.491 54.8813 35.5438C54.9643 36.1925 55.004 36.846 55 37.5V41.25C55.663 41.25 56.2989 41.5134 56.7678 41.9822C57.2366 42.4511 57.5 43.087 57.5 43.75V48.75C57.5 49.413 57.2366 50.0489 56.7678 50.5178C56.4493 50.8362 56.0538 51.0599 55.625 51.1706V51.875C55.625 53.0353 55.1641 54.1481 54.3436 54.9686C53.5231 55.7891 52.4103 56.25 51.25 56.25H43.0178C42.9254 56.5112 42.7754 56.7512 42.5758 56.9508C42.2242 57.3025 41.7473 57.5 41.25 57.5H38.75C38.2527 57.5 37.7758 57.3025 37.4242 56.9508C37.0725 56.5992 36.875 56.1223 36.875 55.625C36.875 55.1277 37.0725 54.6508 37.4242 54.2992C37.7758 53.9475 38.2527 53.75 38.75 53.75H41.25C41.7473 53.75 42.2242 53.9475 42.5758 54.2992C42.7755 54.4988 42.9254 54.7388 43.0178 55H51.25C52.0788 55 52.8737 54.6708 53.4597 54.0847C54.0458 53.4987 54.375 52.7038 54.375 51.875V51.25H53.6706C53.5599 51.6788 53.3362 52.0743 53.0178 52.3928C52.5489 52.8616 51.913 53.125 51.25 53.125C50.587 53.125 49.9511 52.8616 49.4822 52.3928C49.0134 51.9239 48.75 51.288 48.75 50.625V41.875C48.75 41.212 49.0134 40.5761 49.4822 40.1072C49.9511 39.6384 50.587 39.375 51.25 39.375C51.913 39.375 52.5489 39.6384 53.0178 40.1072C53.3362 40.4257 53.5599 40.8212 53.6706 41.25H53.75V37.5C53.7505 37.0693 53.7302 36.639 53.6892 36.2104ZM31.2243 26.9137C33.6915 24.8688 36.7954 23.7498 39.9999 23.75C41.8105 23.7395 43.605 24.0893 45.2789 24.7793C46.9528 25.4693 48.4727 26.4855 49.7499 27.7688C51.6953 29.7175 53.0142 32.2029 53.5374 34.9063C52.9555 34.7713 52.4135 34.5012 51.9553 34.118C51.4971 33.7347 51.1356 33.2489 50.8999 32.7C50.2964 31.3521 49.4488 30.1273 48.3999 29.0875C47.0256 27.7147 45.3356 26.6999 43.4778 26.1322C41.6201 25.5645 39.6515 25.4612 37.7445 25.8313C35.8376 26.2015 34.0506 27.0338 32.5402 28.2553C31.0297 29.4768 29.842 31.0502 29.0812 32.8375C28.8591 33.3779 28.5055 33.8541 28.0525 34.223C27.5995 34.592 27.0615 34.8419 26.4874 34.95C27.0817 31.8011 28.7572 28.9587 31.2243 26.9137ZM53.75 42.5H54.3712L54.375 42.5L54.3788 42.5H55C55.3315 42.5 55.6495 42.6317 55.8839 42.8661C56.1183 43.1005 56.25 43.4185 56.25 43.75V48.75C56.25 49.0815 56.1183 49.3995 55.8839 49.6339C55.6495 49.8683 55.3315 50 55 50H53.75V42.5ZM25 42.5H25.6212L25.625 42.5L25.6288 42.5H26.25V50H25C24.6685 50 24.3505 49.8683 24.1161 49.6339C23.8817 49.3995 23.75 49.0815 23.75 48.75V43.75C23.75 43.4185 23.8817 43.1005 24.1161 42.8661C24.3505 42.6317 24.6685 42.5 25 42.5ZM27.5 50.625V41.875C27.5 41.5435 27.6317 41.2255 27.8661 40.9911C28.1005 40.7567 28.4185 40.625 28.75 40.625C29.0815 40.625 29.3995 40.7567 29.6339 40.9911C29.8683 41.2255 30 41.5435 30 41.875V50.625C30 50.9565 29.8683 51.2745 29.6339 51.5089C29.3995 51.7433 29.0815 51.875 28.75 51.875C28.4185 51.875 28.1005 51.7433 27.8661 51.5089C27.6317 51.2745 27.5 50.9565 27.5 50.625ZM52.5 50.625V41.875C52.5 41.5435 52.3683 41.2255 52.1339 40.9911C51.8995 40.7567 51.5815 40.625 51.25 40.625C50.9185 40.625 50.6005 40.7567 50.3661 40.9911C50.1317 41.2255 50 41.5435 50 41.875V50.625C50 50.9565 50.1317 51.2745 50.3661 51.5089C50.6005 51.7433 50.9185 51.875 51.25 51.875C51.5815 51.875 51.8995 51.7433 52.1339 51.5089C52.3683 51.2745 52.5 50.9565 52.5 50.625ZM38.3081 55.1831C38.4253 55.0658 38.5842 55 38.75 55H41.25C41.4158 55 41.5747 55.0658 41.6919 55.1831C41.8092 55.3003 41.875 55.4592 41.875 55.625C41.875 55.7908 41.8092 55.9497 41.6919 56.0669C41.5747 56.1842 41.4158 56.25 41.25 56.25H38.75C38.5842 56.25 38.4253 56.1842 38.3081 56.0669C38.1908 55.9497 38.125 55.7908 38.125 55.625C38.125 55.4592 38.1908 55.3003 38.3081 55.1831ZM38.75 40H35.625C35.4593 40 35.3003 39.9342 35.1831 39.8169C35.0659 39.6997 35 39.5408 35 39.375V38.75C34.9995 38.6677 35.0153 38.5862 35.0464 38.5101C35.0775 38.4339 35.1233 38.3647 35.1813 38.3063L37.9188 35.5688C38.0162 35.4709 38.0824 35.3464 38.1093 35.2109C38.1361 35.0754 38.1222 34.9351 38.0694 34.8074C38.0166 34.6798 37.9273 34.5707 37.8126 34.4937C37.698 34.4168 37.5631 34.3755 37.425 34.375H36.95C36.7644 34.375 36.5863 34.4488 36.455 34.58C36.3238 34.7113 36.25 34.8893 36.25 35.075V35.625C36.25 35.7908 36.1842 35.9497 36.067 36.0669C35.9497 36.1842 35.7908 36.25 35.625 36.25C35.4593 36.25 35.3003 36.1842 35.1831 36.0669C35.0659 35.9497 35 35.7908 35 35.625V35.075C35 34.8189 35.0504 34.5654 35.1484 34.3288C35.2464 34.0922 35.3901 33.8772 35.5712 33.6961C35.7522 33.5151 35.9672 33.3714 36.2038 33.2734C36.4404 33.1754 36.6939 33.125 36.95 33.125H37.425C37.9422 33.125 38.4382 33.3304 38.8039 33.6961C39.1696 34.0618 39.375 34.5578 39.375 35.075C39.3767 35.3315 39.3272 35.5857 39.2296 35.8228C39.1319 36.06 38.988 36.2753 38.8063 36.4563L36.5063 38.75H38.75C38.9158 38.75 39.0747 38.8158 39.192 38.9331C39.3092 39.0503 39.375 39.2092 39.375 39.375C39.375 39.5408 39.3092 39.6997 39.192 39.8169C39.0747 39.9342 38.9158 40 38.75 40ZM43.125 37.5C42.462 37.5 41.8261 37.2366 41.3572 36.7678C40.8884 36.2989 40.625 35.663 40.625 35V33.75C40.625 33.5842 40.6909 33.4253 40.8081 33.3081C40.9253 33.1908 41.0842 33.125 41.25 33.125C41.4158 33.125 41.5747 33.1908 41.692 33.3081C41.8092 33.4253 41.875 33.5842 41.875 33.75V35C41.875 35.3315 42.0067 35.6495 42.2411 35.8839C42.4755 36.1183 42.7935 36.25 43.125 36.25H43.75V33.75C43.75 33.5842 43.8159 33.4253 43.9331 33.3081C44.0503 33.1908 44.2092 33.125 44.375 33.125C44.5408 33.125 44.6997 33.1908 44.817 33.3081C44.9342 33.4253 45 33.5842 45 33.75V36.875L45 36.8788V39.375C45 39.5408 44.9342 39.6997 44.8169 39.8169C44.6997 39.9342 44.5408 40 44.375 40C44.2092 40 44.0503 39.9342 43.9331 39.8169C43.8158 39.6997 43.75 39.5408 43.75 39.375V37.5H43.125ZM39.7452 44.996C38.2274 44.9484 36.7514 44.4762 35.486 43.6307C34.1498 42.7379 33.1084 41.469 32.4935 39.9843C31.8785 38.4997 31.7176 36.866 32.0311 35.2899C32.3446 33.7138 33.1185 32.2661 34.2548 31.1298C35.3911 29.9935 36.8388 29.2196 38.4149 28.9061C39.991 28.5926 41.6247 28.7535 43.1093 29.3685C44.594 29.9834 45.8629 31.0248 46.7557 32.361C47.6485 33.6971 48.125 35.268 48.125 36.875C48.125 37.0408 48.0592 37.1997 47.9419 37.3169C47.8247 37.4342 47.6658 37.5 47.5 37.5C47.3342 37.5 47.1753 37.4342 47.0581 37.3169C46.9409 37.1997 46.875 37.0408 46.875 36.875C46.875 35.5153 46.4718 34.186 45.7164 33.0555C44.9609 31.9249 43.8872 31.0437 42.631 30.5233C41.3747 30.003 39.9924 29.8668 38.6588 30.1321C37.3251 30.3974 36.1001 31.0522 35.1386 32.0136C34.1772 32.9751 33.5224 34.2001 33.2571 35.5338C32.9918 36.8674 33.128 38.2497 33.6483 39.506C34.1687 40.7622 35.0499 41.8359 36.1805 42.5914C37.2378 43.2978 38.4689 43.6963 39.7362 43.7449L38.9315 42.9437C38.8138 42.8261 38.7476 42.6664 38.7476 42.5C38.7476 42.3336 38.8138 42.1739 38.9315 42.0562C39.0491 41.9386 39.2088 41.8724 39.3752 41.8724C39.5416 41.8724 39.7013 41.9386 39.819 42.0562L41.694 43.9312C41.7525 43.9893 41.799 44.0585 41.8308 44.1346C41.8625 44.2108 41.8788 44.2925 41.8788 44.375C41.8788 44.4575 41.8625 44.5392 41.8308 44.6154C41.799 44.6915 41.7525 44.7606 41.694 44.8187L39.819 46.6937C39.7606 46.7517 39.6913 46.7975 39.6151 46.8286C39.539 46.8597 39.4575 46.8755 39.3752 46.875C39.293 46.8755 39.2114 46.8597 39.1353 46.8286C39.0591 46.7975 38.9899 46.7517 38.9315 46.6937C38.8729 46.6356 38.8264 46.5665 38.7946 46.4904C38.7629 46.4142 38.7466 46.3325 38.7466 46.25C38.7466 46.1675 38.7629 46.0858 38.7946 46.0096C38.8264 45.9335 38.8729 45.8643 38.9315 45.8062L39.7452 44.996Z" fill="white"/>
<path d="M51.5385 35.4046L51.6498 35.2384L51.5385 35.4046ZM53.6892 36.2104L53.8883 36.1914L53.873 36.0322L53.7145 36.012L53.6892 36.2104ZM49.7249 33.2188L49.9088 33.14L49.9079 33.1381L49.7249 33.2188ZM45.7802 28.5873L45.6714 28.7552L45.7802 28.5873ZM39.9411 26.8793L39.9423 27.0793L39.9411 26.8793ZM34.1222 28.6546L34.0116 28.488L34.1222 28.6546ZM30.2312 33.3313L30.0472 33.2527L30.0462 33.2553L30.2312 33.3313ZM28.5206 35.438L28.6329 35.6035V35.6035L28.5206 35.438ZM26.3178 36.2297L26.2991 36.0306L26.1354 36.046L26.1188 36.2095L26.3178 36.2297ZM26.25 37.5L26.05 37.4989V37.5H26.25ZM26.25 41.25H26.05V41.45H26.25V41.25ZM26.3294 41.25V41.45H26.4843L26.523 41.3L26.3294 41.25ZM26.9822 40.1072L26.8408 39.9658V39.9658L26.9822 40.1072ZM30.5178 40.1072L30.6592 39.9658V39.9658L30.5178 40.1072ZM30.5178 52.3928L30.6592 52.5342V52.5342L30.5178 52.3928ZM26.9822 52.3928L26.8408 52.5342V52.5342L26.9822 52.3928ZM26.3294 51.25L26.523 51.2L26.4843 51.05H26.3294V51.25ZM23.2322 50.5178L23.0908 50.6592L23.0908 50.6592L23.2322 50.5178ZM23.2322 41.9822L23.0908 41.8408L23.0908 41.8408L23.2322 41.9822ZM25 41.25V41.45H25.2V41.25H25ZM25 37.5L24.8 37.5V37.5H25ZM25.1197 35.6319L25.318 35.6573L25.3198 35.6436L25.3197 35.6297L25.1197 35.6319ZM25.1249 35.5438L24.9267 35.5174L24.9266 35.5178L25.1249 35.5438ZM30.1119 26.2388L29.9801 26.0883L30.1119 26.2388ZM49.8755 26.2388L50.0073 26.0883L49.8755 26.2388ZM54.8412 35.3903L54.6432 35.4188L54.6466 35.4425L54.6556 35.4648L54.8412 35.3903ZM54.8813 35.5438L55.0796 35.5184L55.0796 35.518L54.8813 35.5438ZM55 37.5L54.8 37.4988V37.5H55ZM55 41.25H54.8V41.45H55V41.25ZM56.7678 41.9822L56.6263 42.1237V42.1237L56.7678 41.9822ZM55.625 51.1706L55.575 50.977L55.425 51.0157V51.1706H55.625ZM54.3436 54.9686L54.485 55.11H54.485L54.3436 54.9686ZM43.0178 56.25V56.05H42.8763L42.8292 56.1833L43.0178 56.25ZM42.5758 56.9508L42.7172 57.0922L42.5758 56.9508ZM37.4242 56.9508L37.2828 57.0922L37.4242 56.9508ZM37.4242 54.2992L37.2828 54.1578V54.1578L37.4242 54.2992ZM43.0178 55L42.8292 55.0667L42.8764 55.2H43.0178V55ZM53.4597 54.0847L53.6011 54.2261H53.6011L53.4597 54.0847ZM54.375 51.25H54.575V51.05H54.375V51.25ZM53.6706 51.25V51.05H53.5157L53.477 51.2L53.6706 51.25ZM53.0178 52.3928L53.1592 52.5342L53.1592 52.5342L53.0178 52.3928ZM49.4822 52.3928L49.3408 52.5342L49.3408 52.5342L49.4822 52.3928ZM49.4822 40.1072L49.3408 39.9658L49.3408 39.9658L49.4822 40.1072ZM53.0178 40.1072L53.1592 39.9658L53.1592 39.9658L53.0178 40.1072ZM53.6706 41.25L53.477 41.3L53.5157 41.45H53.6706V41.25ZM53.75 41.25V41.45H53.95V41.25H53.75ZM53.75 37.5L53.55 37.4998V37.5H53.75ZM39.9999 23.75L39.9999 23.95L40.0011 23.95L39.9999 23.75ZM31.2243 26.9137L31.0967 26.7598L31.2243 26.9137ZM45.2789 24.7793L45.2027 24.9642L45.2789 24.7793ZM49.7499 27.7688L49.6082 27.9099L49.6084 27.9101L49.7499 27.7688ZM53.5374 34.9063L53.4922 35.1011L53.7923 35.1707L53.7338 34.8683L53.5374 34.9063ZM51.9553 34.118L51.827 34.2714V34.2714L51.9553 34.118ZM50.8999 32.7L51.0837 32.6211L51.0825 32.6183L50.8999 32.7ZM48.3999 29.0875L48.2586 29.229L48.2591 29.2296L48.3999 29.0875ZM43.4778 26.1322L43.5363 25.9409L43.4778 26.1322ZM37.7445 25.8313L37.7826 26.0277L37.7445 25.8313ZM32.5402 28.2553L32.4144 28.0998L32.5402 28.2553ZM29.0812 32.8375L28.8972 32.7592L28.8962 32.7615L29.0812 32.8375ZM26.4874 34.95L26.2909 34.9129L26.2366 35.2008L26.5245 35.1466L26.4874 34.95ZM54.3712 42.5L54.3718 42.3H54.3712V42.5ZM53.75 42.5V42.3H53.55V42.5H53.75ZM54.375 42.5L54.3744 42.7L54.3756 42.7L54.375 42.5ZM54.3788 42.5V42.3L54.3782 42.3L54.3788 42.5ZM53.75 50H53.55V50.2H53.75V50ZM25.6212 42.5L25.6218 42.3H25.6212V42.5ZM25.625 42.5L25.6244 42.7L25.6256 42.7L25.625 42.5ZM25.6288 42.5V42.3L25.6282 42.3L25.6288 42.5ZM26.25 42.5H26.45V42.3H26.25V42.5ZM26.25 50V50.2H26.45V50H26.25ZM24.1161 49.6339L24.2575 49.4925L24.1161 49.6339ZM24.1161 42.8661L24.2575 43.0075L24.1161 42.8661ZM27.8661 40.9911L27.7247 40.8497V40.8497L27.8661 40.9911ZM29.6339 40.9911L29.7753 40.8497V40.8497L29.6339 40.9911ZM29.6339 51.5089L29.7753 51.6503V51.6503L29.6339 51.5089ZM27.8661 51.5089L27.7247 51.6503V51.6503L27.8661 51.5089ZM38.3081 55.1831L38.4495 55.3245H38.4495L38.3081 55.1831ZM41.6919 55.1831L41.5505 55.3245H41.5505L41.6919 55.1831ZM41.6919 56.0669L41.5505 55.9255H41.5505L41.6919 56.0669ZM38.3081 56.0669L38.4495 55.9255H38.4495L38.3081 56.0669ZM35 38.75H35.2L35.2 38.7488L35 38.75ZM35.0464 38.5101L34.8613 38.4344H34.8613L35.0464 38.5101ZM35.1813 38.3063L35.0398 38.1648L35.0393 38.1654L35.1813 38.3063ZM37.9188 35.5688L38.0602 35.7102L38.0605 35.7098L37.9188 35.5688ZM38.1093 35.2109L38.3054 35.2497L38.1093 35.2109ZM37.8126 34.4937L37.7012 34.6598V34.6598L37.8126 34.4937ZM37.425 34.375L37.4257 34.175H37.425V34.375ZM39.375 35.075H39.175L39.175 35.0763L39.375 35.075ZM38.8063 36.4563L38.6652 36.3145L38.665 36.3146L38.8063 36.4563ZM36.5063 38.75L36.365 38.6084L36.0225 38.95H36.5063V38.75ZM39.192 38.9331L39.0505 39.0745V39.0745L39.192 38.9331ZM39.192 39.8169L39.0505 39.6755V39.6755L39.192 39.8169ZM41.3572 36.7678L41.2158 36.9092H41.2158L41.3572 36.7678ZM42.2411 35.8839L42.3825 35.7425L42.2411 35.8839ZM43.75 36.25V36.45H43.95V36.25H43.75ZM45 36.875L45.2 36.8756V36.875H45ZM45 36.8788L44.8 36.8782V36.8788H45ZM43.75 37.5H43.95V37.3H43.75V37.5ZM35.486 43.6307L35.5971 43.4644H35.5971L35.486 43.6307ZM39.7452 44.996L39.8863 45.1377L40.2149 44.8106L39.7515 44.7961L39.7452 44.996ZM32.4935 39.9843L32.6783 39.9078L32.4935 39.9843ZM34.2548 31.1298L34.3962 31.2712L34.2548 31.1298ZM38.4149 28.9061L38.3759 28.71L38.4149 28.9061ZM46.7557 32.361L46.5894 32.4721V32.4721L46.7557 32.361ZM45.7164 33.0555L45.8827 32.9443L45.7164 33.0555ZM42.631 30.5233L42.7075 30.3386L42.631 30.5233ZM38.6588 30.1321L38.6197 29.9359L38.6588 30.1321ZM35.1386 32.0136L34.9972 31.8722L35.1386 32.0136ZM33.6483 39.506L33.4636 39.5825L33.6483 39.506ZM36.1805 42.5914L36.2916 42.4251L36.1805 42.5914ZM39.7362 43.7449L39.7285 43.9448L40.2401 43.9644L39.8773 43.6032L39.7362 43.7449ZM38.9315 42.9437L38.79 43.0852L38.7903 43.0855L38.9315 42.9437ZM38.9315 42.0562L39.0729 42.1977L39.0729 42.1977L38.9315 42.0562ZM39.819 42.0562L39.6775 42.1977V42.1977L39.819 42.0562ZM41.694 43.9312L41.5525 44.0727L41.5531 44.0732L41.694 43.9312ZM41.694 44.8187L41.5531 44.6767L41.5525 44.6773L41.694 44.8187ZM39.819 46.6937L39.9598 46.8357L39.9604 46.8352L39.819 46.6937ZM39.6151 46.8286L39.6908 47.0138L39.6908 47.0138L39.6151 46.8286ZM39.3752 46.875L39.3764 46.675L39.374 46.675L39.3752 46.875ZM39.1353 46.8286L39.0596 47.0138L39.0596 47.0138L39.1353 46.8286ZM38.9315 46.6937L39.0723 46.5518L39.0723 46.5517L38.9315 46.6937ZM38.9315 45.8062L39.0723 45.9482L39.0726 45.948L38.9315 45.8062ZM51.4272 35.5708C52.0998 36.0214 52.866 36.3071 53.6639 36.4088L53.7145 36.012C52.978 35.9182 52.2707 35.6544 51.6498 35.2384L51.4272 35.5708ZM49.5411 33.2975C49.9368 34.2216 50.5919 35.0113 51.4272 35.5708L51.6498 35.2384C50.8788 34.722 50.2741 33.9931 49.9088 33.14L49.5411 33.2975ZM45.6714 28.7552C47.3769 29.8603 48.7223 31.4398 49.5419 33.2994L49.9079 33.1381C49.0568 31.2071 47.6599 29.567 45.8889 28.4195L45.6714 28.7552ZM39.9423 27.0793C41.9745 27.0676 43.9659 27.6501 45.6714 28.7552L45.8889 28.4195C44.1179 27.272 42.0502 26.6671 39.94 26.6793L39.9423 27.0793ZM34.2329 28.8212C35.9256 27.6965 37.9101 27.091 39.9423 27.0793L39.94 26.6793C37.8298 26.6915 35.7692 27.3202 34.0116 28.488L34.2329 28.8212ZM30.4151 33.4098C31.2133 31.5409 32.5403 29.9459 34.2329 28.8212L34.0116 28.488C32.254 29.6559 30.876 31.312 30.0473 33.2527L30.4151 33.4098ZM28.6329 35.6035C29.4301 35.0624 30.0503 34.2985 30.4162 33.4072L30.0462 33.2553C29.7101 34.074 29.1405 34.7755 28.4083 35.2725L28.6329 35.6035ZM26.3365 36.4288C27.1571 36.3517 27.9474 36.0688 28.6329 35.6035L28.4083 35.2725C27.7786 35.6999 27.0528 35.9597 26.2991 36.0306L26.3365 36.4288ZM26.45 37.5012C26.4524 37.0831 26.4747 36.6656 26.5168 36.2498L26.1188 36.2095C26.0754 36.6379 26.0525 37.0681 26.05 37.4989L26.45 37.5012ZM26.45 41.25V37.5H26.05V41.25H26.45ZM26.3294 41.05H26.25V41.45H26.3294V41.05ZM26.8408 39.9658C26.4969 40.3098 26.2553 40.7369 26.1357 41.2L26.523 41.3C26.6249 40.9055 26.8307 40.5416 27.1237 40.2487L26.8408 39.9658ZM28.75 39.175C28.0339 39.175 27.3472 39.4595 26.8408 39.9658L27.1237 40.2487C27.555 39.8173 28.14 39.575 28.75 39.575V39.175ZM30.6592 39.9658C30.1528 39.4595 29.4661 39.175 28.75 39.175V39.575C29.36 39.575 29.945 39.8173 30.3763 40.2487L30.6592 39.9658ZM31.45 41.875C31.45 41.1589 31.1655 40.4722 30.6592 39.9658L30.3763 40.2487C30.8077 40.68 31.05 41.265 31.05 41.875H31.45ZM31.45 50.625V41.875H31.05V50.625H31.45ZM30.6592 52.5342C31.1655 52.0278 31.45 51.3411 31.45 50.625H31.05C31.05 51.235 30.8077 51.82 30.3763 52.2513L30.6592 52.5342ZM28.75 53.325C29.4661 53.325 30.1528 53.0405 30.6592 52.5342L30.3763 52.2513C29.945 52.6827 29.36 52.925 28.75 52.925V53.325ZM26.8408 52.5342C27.3472 53.0405 28.0339 53.325 28.75 53.325V52.925C28.14 52.925 27.555 52.6827 27.1237 52.2513L26.8408 52.5342ZM26.1357 51.3C26.2553 51.7631 26.4969 52.1902 26.8408 52.5342L27.1237 52.2513C26.8307 51.9584 26.6249 51.5945 26.523 51.2L26.1357 51.3ZM25 51.45H26.3294V51.05H25V51.45ZM23.0908 50.6592C23.5972 51.1655 24.2839 51.45 25 51.45V51.05C24.39 51.05 23.805 50.8077 23.3737 50.3763L23.0908 50.6592ZM22.3 48.75C22.3 49.4661 22.5845 50.1528 23.0908 50.6592L23.3737 50.3763C22.9423 49.945 22.7 49.36 22.7 48.75H22.3ZM22.3 43.75V48.75H22.7V43.75H22.3ZM23.0908 41.8408C22.5845 42.3472 22.3 43.0339 22.3 43.75H22.7C22.7 43.14 22.9423 42.555 23.3737 42.1237L23.0908 41.8408ZM25 41.05C24.2839 41.05 23.5972 41.3345 23.0908 41.8408L23.3737 42.1237C23.805 41.6923 24.39 41.45 25 41.45V41.05ZM24.8 37.5V41.25H25.2V37.5H24.8ZM24.9213 35.6064C24.8407 36.2343 24.8001 36.8668 24.8 37.5L25.2 37.5001C25.2001 36.8839 25.2396 36.2684 25.318 35.6573L24.9213 35.6064ZM24.9266 35.5178C24.9216 35.5564 24.9193 35.5953 24.9197 35.634L25.3197 35.6297C25.3194 35.6097 25.3206 35.5897 25.3232 35.5698L24.9266 35.5178ZM29.9801 26.0883C27.2087 28.5152 25.4129 31.8658 24.9267 35.5174L25.3232 35.5702C25.7966 32.0147 27.5452 28.7522 30.2436 26.3893L29.9801 26.0883ZM39.9937 22.3237C36.3099 22.3237 32.7515 23.6615 29.9801 26.0883L30.2436 26.3893C32.9421 24.0263 36.4069 22.7237 39.9937 22.7237V22.3237ZM50.0073 26.0883C47.2359 23.6615 43.6774 22.3237 39.9937 22.3237V22.7237C43.5805 22.7237 47.0453 24.0263 49.7437 26.3893L50.0073 26.0883ZM55.0392 35.3619C54.5232 31.7708 52.7393 28.4807 50.0073 26.0883L49.7437 26.3893C52.4039 28.7186 54.1408 31.9222 54.6432 35.4188L55.0392 35.3619ZM55.0796 35.518C55.0706 35.4485 55.0528 35.3806 55.0268 35.3159L54.6556 35.4648C54.669 35.4984 54.6782 35.5335 54.6829 35.5695L55.0796 35.518ZM55.2 37.5012C55.204 36.8383 55.1638 36.1759 55.0796 35.5184L54.6829 35.5692C54.7648 36.209 54.8039 36.8537 54.8 37.4988L55.2 37.5012ZM55.2 41.25V37.5H54.8V41.25H55.2ZM56.9092 41.8408C56.4028 41.3345 55.7161 41.05 55 41.05V41.45C55.61 41.45 56.195 41.6923 56.6263 42.1237L56.9092 41.8408ZM57.7 43.75C57.7 43.0339 57.4155 42.3472 56.9092 41.8408L56.6263 42.1237C57.0577 42.555 57.3 43.14 57.3 43.75H57.7ZM57.7 48.75V43.75H57.3V48.75H57.7ZM56.9092 50.6592C57.4155 50.1528 57.7 49.4661 57.7 48.75H57.3C57.3 49.36 57.0577 49.945 56.6263 50.3763L56.9092 50.6592ZM55.675 51.3643C56.1381 51.2447 56.5652 51.0031 56.9092 50.6592L56.6263 50.3763C56.3334 50.6693 55.9695 50.8751 55.575 50.977L55.675 51.3643ZM55.825 51.875V51.1706H55.425V51.875H55.825ZM54.485 55.11C55.343 54.252 55.825 53.0884 55.825 51.875H55.425C55.425 52.9823 54.9851 54.0442 54.2022 54.8272L54.485 55.11ZM51.25 56.45C52.4634 56.45 53.627 55.968 54.485 55.11L54.2022 54.8272C53.4192 55.6101 52.3573 56.05 51.25 56.05V56.45ZM43.0178 56.45H51.25V56.05H43.0178V56.45ZM42.7172 57.0922C42.9382 56.8713 43.1041 56.6057 43.2063 56.3167L42.8292 56.1833C42.7467 56.4167 42.6127 56.6311 42.4344 56.8094L42.7172 57.0922ZM41.25 57.7C41.8003 57.7 42.3281 57.4814 42.7172 57.0922L42.4344 56.8094C42.1203 57.1235 41.6942 57.3 41.25 57.3V57.7ZM38.75 57.7H41.25V57.3H38.75V57.7ZM37.2828 57.0922C37.6719 57.4814 38.1997 57.7 38.75 57.7V57.3C38.3058 57.3 37.8797 57.1235 37.5656 56.8094L37.2828 57.0922ZM36.675 55.625C36.675 56.1753 36.8936 56.7031 37.2828 57.0922L37.5656 56.8094C37.2515 56.4953 37.075 56.0692 37.075 55.625H36.675ZM37.2828 54.1578C36.8936 54.5469 36.675 55.0747 36.675 55.625H37.075C37.075 55.1808 37.2515 54.7547 37.5656 54.4406L37.2828 54.1578ZM38.75 53.55C38.1997 53.55 37.6719 53.7686 37.2828 54.1578L37.5656 54.4406C37.8797 54.1265 38.3058 53.95 38.75 53.95V53.55ZM41.25 53.55H38.75V53.95H41.25V53.55ZM42.7172 54.1578C42.3281 53.7686 41.8003 53.55 41.25 53.55V53.95C41.6942 53.95 42.1203 54.1265 42.4344 54.4406L42.7172 54.1578ZM43.2063 54.9333C43.1041 54.6443 42.9382 54.3787 42.7172 54.1578L42.4344 54.4406C42.6127 54.6189 42.7467 54.8333 42.8292 55.0667L43.2063 54.9333ZM51.25 54.8H43.0178V55.2H51.25V54.8ZM53.3183 53.9433C52.7697 54.4918 52.0258 54.8 51.25 54.8V55.2C52.1318 55.2 52.9776 54.8497 53.6011 54.2261L53.3183 53.9433ZM54.175 51.875C54.175 52.6508 53.8668 53.3948 53.3183 53.9433L53.6011 54.2261C54.2247 53.6026 54.575 52.7569 54.575 51.875H54.175ZM54.175 51.25V51.875H54.575V51.25H54.175ZM53.6706 51.45H54.375V51.05H53.6706V51.45ZM53.1592 52.5342C53.5031 52.1902 53.7447 51.7631 53.8643 51.3L53.477 51.2C53.3751 51.5945 53.1693 51.9584 52.8763 52.2513L53.1592 52.5342ZM51.25 53.325C51.9661 53.325 52.6528 53.0405 53.1592 52.5342L52.8763 52.2513C52.445 52.6827 51.86 52.925 51.25 52.925V53.325ZM49.3408 52.5342C49.8472 53.0405 50.5339 53.325 51.25 53.325V52.925C50.64 52.925 50.055 52.6827 49.6237 52.2513L49.3408 52.5342ZM48.55 50.625C48.55 51.3411 48.8345 52.0278 49.3408 52.5342L49.6237 52.2513C49.1923 51.82 48.95 51.235 48.95 50.625H48.55ZM48.55 41.875V50.625H48.95V41.875H48.55ZM49.3408 39.9658C48.8345 40.4722 48.55 41.1589 48.55 41.875H48.95C48.95 41.265 49.1923 40.68 49.6237 40.2487L49.3408 39.9658ZM51.25 39.175C50.5339 39.175 49.8472 39.4595 49.3408 39.9658L49.6237 40.2487C50.055 39.8173 50.64 39.575 51.25 39.575V39.175ZM53.1592 39.9658C52.6528 39.4595 51.9661 39.175 51.25 39.175V39.575C51.86 39.575 52.445 39.8173 52.8763 40.2487L53.1592 39.9658ZM53.8643 41.2C53.7447 40.7369 53.5031 40.3098 53.1592 39.9658L52.8763 40.2487C53.1693 40.5416 53.3751 40.9055 53.477 41.3L53.8643 41.2ZM53.75 41.05H53.6706V41.45H53.75V41.05ZM53.55 37.5V41.25H53.95V37.5H53.55ZM53.4901 36.2295C53.5305 36.6516 53.5505 37.0755 53.55 37.4998L53.95 37.5002C53.9505 37.0631 53.9299 36.6263 53.8883 36.1914L53.4901 36.2295ZM40 23.55C36.7489 23.5498 33.5998 24.6851 31.0967 26.7598L31.352 27.0677C33.7833 25.0525 36.842 23.9498 39.9999 23.95L40 23.55ZM45.3551 24.5944C43.6567 23.8943 41.8358 23.5393 39.9988 23.55L40.0011 23.95C41.7851 23.9396 43.5533 24.2844 45.2027 24.9642L45.3551 24.5944ZM49.8917 27.6277C48.5957 26.3256 47.0536 25.2945 45.3551 24.5944L45.2027 24.9642C46.8521 25.6441 48.3497 26.6454 49.6082 27.9099L49.8917 27.6277ZM53.7338 34.8683C53.203 32.1258 51.865 29.6044 49.8915 27.6275L49.6084 27.9101C51.5257 29.8306 52.8255 32.28 53.3411 34.9443L53.7338 34.8683ZM51.827 34.2714C52.3093 34.6748 52.8797 34.959 53.4922 35.1011L53.5826 34.7114C53.0313 34.5836 52.5178 34.3277 52.0837 33.9646L51.827 34.2714ZM50.7162 32.7789C50.9642 33.3567 51.3447 33.868 51.827 34.2714L52.0837 33.9646C51.6495 33.6014 51.307 33.1412 51.0837 32.6211L50.7162 32.7789ZM48.2591 29.2296C49.2905 30.252 50.1239 31.4563 50.7174 32.7818L51.0825 32.6183C50.4688 31.2478 49.6071 30.0026 48.5407 28.9455L48.2591 29.2296ZM43.4194 26.3235C45.2458 26.8816 46.9074 27.8793 48.2586 29.229L48.5413 28.946C47.1438 27.55 45.4253 26.5182 43.5363 25.9409L43.4194 26.3235ZM37.7826 26.0277C39.6575 25.6638 41.5929 25.7653 43.4194 26.3235L43.5363 25.9409C41.6473 25.3637 39.6455 25.2586 37.7064 25.635L37.7826 26.0277ZM32.6659 28.4108C34.1509 27.2099 35.9078 26.3916 37.7826 26.0277L37.7064 25.635C35.7674 26.0114 33.9503 26.8577 32.4144 28.0998L32.6659 28.4108ZM29.2652 32.9159C30.0132 31.1586 31.1809 29.6118 32.6659 28.4108L32.4144 28.0998C30.8785 29.3419 29.6708 30.9418 28.8972 32.7592L29.2652 32.9159ZM28.1788 34.3781C28.6576 33.9881 29.0314 33.4847 29.2662 32.9136L28.8962 32.7615C28.6868 33.271 28.3533 33.7201 27.9262 34.068L28.1788 34.3781ZM26.5245 35.1466C27.1313 35.0322 27.7 34.7681 28.1788 34.3781L27.9262 34.068C27.499 34.4158 26.9918 34.6515 26.4504 34.7535L26.5245 35.1466ZM31.0967 26.7598C28.5937 28.8344 26.8938 31.7182 26.2909 34.9129L26.684 34.9871C27.2696 31.884 28.9207 29.0829 31.352 27.0677L31.0967 26.7598ZM54.3712 42.3H53.75V42.7H54.3712V42.3ZM54.3756 42.3L54.3718 42.3L54.3706 42.7L54.3744 42.7L54.3756 42.3ZM54.3782 42.3L54.3744 42.3L54.3756 42.7L54.3794 42.7L54.3782 42.3ZM55 42.3H54.3788V42.7H55V42.3ZM56.0253 42.7247C55.7534 42.4528 55.3846 42.3 55 42.3V42.7C55.2785 42.7 55.5456 42.8106 55.7425 43.0075L56.0253 42.7247ZM56.45 43.75C56.45 43.3654 56.2972 42.9966 56.0253 42.7247L55.7425 43.0075C55.9394 43.2045 56.05 43.4715 56.05 43.75H56.45ZM56.45 48.75V43.75H56.05V48.75H56.45ZM56.0253 49.7753C56.2972 49.5034 56.45 49.1346 56.45 48.75H56.05C56.05 49.0285 55.9394 49.2955 55.7425 49.4925L56.0253 49.7753ZM55 50.2C55.3846 50.2 55.7534 50.0472 56.0253 49.7753L55.7425 49.4925C55.5456 49.6894 55.2785 49.8 55 49.8V50.2ZM53.75 50.2H55V49.8H53.75V50.2ZM53.55 42.5V50H53.95V42.5H53.55ZM25.6212 42.3H25V42.7H25.6212V42.3ZM25.6256 42.3L25.6218 42.3L25.6206 42.7L25.6244 42.7L25.6256 42.3ZM25.6282 42.3L25.6244 42.3L25.6256 42.7L25.6294 42.7L25.6282 42.3ZM26.25 42.3H25.6288V42.7H26.25V42.3ZM26.45 50V42.5H26.05V50H26.45ZM25 50.2H26.25V49.8H25V50.2ZM23.9747 49.7753C24.2466 50.0472 24.6154 50.2 25 50.2V49.8C24.7215 49.8 24.4545 49.6894 24.2575 49.4925L23.9747 49.7753ZM23.55 48.75C23.55 49.1346 23.7028 49.5034 23.9747 49.7753L24.2575 49.4925C24.0606 49.2955 23.95 49.0285 23.95 48.75H23.55ZM23.55 43.75V48.75H23.95V43.75H23.55ZM23.9747 42.7247C23.7028 42.9966 23.55 43.3654 23.55 43.75H23.95C23.95 43.4715 24.0606 43.2045 24.2575 43.0075L23.9747 42.7247ZM25 42.3C24.6154 42.3 24.2466 42.4528 23.9747 42.7247L24.2575 43.0075C24.4545 42.8106 24.7215 42.7 25 42.7V42.3ZM27.3 41.875V50.625H27.7V41.875H27.3ZM27.7247 40.8497C27.4528 41.1216 27.3 41.4904 27.3 41.875H27.7C27.7 41.5965 27.8106 41.3295 28.0075 41.1325L27.7247 40.8497ZM28.75 40.425C28.3654 40.425 27.9966 40.5778 27.7247 40.8497L28.0075 41.1325C28.2045 40.9356 28.4715 40.825 28.75 40.825V40.425ZM29.7753 40.8497C29.5034 40.5778 29.1346 40.425 28.75 40.425V40.825C29.0285 40.825 29.2955 40.9356 29.4925 41.1325L29.7753 40.8497ZM30.2 41.875C30.2 41.4904 30.0472 41.1216 29.7753 40.8497L29.4925 41.1325C29.6894 41.3295 29.8 41.5965 29.8 41.875H30.2ZM30.2 50.625V41.875H29.8V50.625H30.2ZM29.7753 51.6503C30.0472 51.3784 30.2 51.0096 30.2 50.625H29.8C29.8 50.9035 29.6894 51.1705 29.4925 51.3675L29.7753 51.6503ZM28.75 52.075C29.1346 52.075 29.5034 51.9222 29.7753 51.6503L29.4925 51.3675C29.2955 51.5644 29.0285 51.675 28.75 51.675V52.075ZM27.7247 51.6503C27.9966 51.9222 28.3654 52.075 28.75 52.075V51.675C28.4715 51.675 28.2045 51.5644 28.0075 51.3675L27.7247 51.6503ZM27.3 50.625C27.3 51.0096 27.4528 51.3784 27.7247 51.6503L28.0075 51.3675C27.8106 51.1705 27.7 50.9035 27.7 50.625H27.3ZM52.3 41.875V50.625H52.7V41.875H52.3ZM51.9925 41.1325C52.1894 41.3295 52.3 41.5965 52.3 41.875H52.7C52.7 41.4904 52.5472 41.1216 52.2753 40.8497L51.9925 41.1325ZM51.25 40.825C51.5285 40.825 51.7955 40.9356 51.9925 41.1325L52.2753 40.8497C52.0034 40.5778 51.6346 40.425 51.25 40.425V40.825ZM50.5075 41.1325C50.7045 40.9356 50.9715 40.825 51.25 40.825V40.425C50.8654 40.425 50.4966 40.5778 50.2247 40.8497L50.5075 41.1325ZM50.2 41.875C50.2 41.5965 50.3106 41.3295 50.5075 41.1325L50.2247 40.8497C49.9528 41.1216 49.8 41.4904 49.8 41.875H50.2ZM50.2 50.625V41.875H49.8V50.625H50.2ZM50.5075 51.3675C50.3106 51.1705 50.2 50.9035 50.2 50.625H49.8C49.8 51.0096 49.9528 51.3784 50.2247 51.6503L50.5075 51.3675ZM51.25 51.675C50.9715 51.675 50.7045 51.5644 50.5075 51.3675L50.2247 51.6503C50.4966 51.9222 50.8654 52.075 51.25 52.075V51.675ZM51.9925 51.3675C51.7955 51.5644 51.5285 51.675 51.25 51.675V52.075C51.6346 52.075 52.0034 51.9222 52.2753 51.6503L51.9925 51.3675ZM52.3 50.625C52.3 50.9035 52.1894 51.1705 51.9925 51.3675L52.2753 51.6503C52.5472 51.3784 52.7 51.0096 52.7 50.625H52.3ZM38.75 54.8C38.5312 54.8 38.3214 54.8869 38.1666 55.0416L38.4495 55.3245C38.5292 55.2448 38.6373 55.2 38.75 55.2V54.8ZM41.25 54.8H38.75V55.2H41.25V54.8ZM41.8334 55.0416C41.6786 54.8869 41.4688 54.8 41.25 54.8V55.2C41.3627 55.2 41.4708 55.2448 41.5505 55.3245L41.8334 55.0416ZM42.075 55.625C42.075 55.4062 41.9881 55.1964 41.8334 55.0416L41.5505 55.3245C41.6302 55.4042 41.675 55.5123 41.675 55.625H42.075ZM41.8334 56.2084C41.9881 56.0536 42.075 55.8438 42.075 55.625H41.675C41.675 55.7377 41.6302 55.8458 41.5505 55.9255L41.8334 56.2084ZM41.25 56.45C41.4688 56.45 41.6786 56.3631 41.8334 56.2084L41.5505 55.9255C41.4708 56.0052 41.3627 56.05 41.25 56.05V56.45ZM38.75 56.45H41.25V56.05H38.75V56.45ZM38.1666 56.2084C38.3214 56.3631 38.5312 56.45 38.75 56.45V56.05C38.6373 56.05 38.5292 56.0052 38.4495 55.9255L38.1666 56.2084ZM37.925 55.625C37.925 55.8438 38.0119 56.0536 38.1666 56.2084L38.4495 55.9255C38.3698 55.8458 38.325 55.7377 38.325 55.625H37.925ZM38.1666 55.0416C38.0119 55.1964 37.925 55.4062 37.925 55.625H38.325C38.325 55.5123 38.3698 55.4042 38.4495 55.3245L38.1666 55.0416ZM35.625 40.2H38.75V39.8H35.625V40.2ZM35.0416 39.9584C35.1964 40.1131 35.4062 40.2 35.625 40.2V39.8C35.5123 39.8 35.4042 39.7552 35.3245 39.6755L35.0416 39.9584ZM34.8 39.375C34.8 39.5938 34.8869 39.8036 35.0416 39.9584L35.3245 39.6755C35.2448 39.5958 35.2 39.4877 35.2 39.375H34.8ZM34.8 38.75V39.375H35.2V38.75H34.8ZM34.8613 38.4344C34.8202 38.535 34.7994 38.6426 34.8 38.7512L35.2 38.7488C35.1997 38.6929 35.2104 38.6375 35.2316 38.5857L34.8613 38.4344ZM35.0393 38.1654C34.9628 38.2425 34.9023 38.3339 34.8613 38.4344L35.2316 38.5857C35.2527 38.5339 35.2839 38.4868 35.3233 38.4471L35.0393 38.1654ZM37.7773 35.4273L35.0398 38.1648L35.3227 38.4477L38.0602 35.7102L37.7773 35.4273ZM37.9131 35.1721C37.8939 35.2688 37.8466 35.3578 37.777 35.4277L38.0605 35.7098C38.1858 35.584 38.271 35.4239 38.3054 35.2497L37.9131 35.1721ZM37.8846 34.8839C37.9223 34.975 37.9322 35.0753 37.9131 35.1721L38.3054 35.2497C38.3399 35.0755 38.3221 34.8951 38.2542 34.731L37.8846 34.8839ZM37.7012 34.6598C37.7831 34.7148 37.8469 34.7927 37.8846 34.8839L38.2542 34.731C38.1864 34.5669 38.0715 34.4266 37.9241 34.3277L37.7012 34.6598ZM37.4243 34.575C37.5229 34.5753 37.6193 34.6049 37.7012 34.6598L37.9241 34.3277C37.7767 34.2287 37.6033 34.1756 37.4257 34.175L37.4243 34.575ZM36.95 34.575H37.425V34.175H36.95V34.575ZM36.5965 34.7214C36.6902 34.6277 36.8174 34.575 36.95 34.575V34.175C36.7113 34.175 36.4824 34.2698 36.3136 34.4386L36.5965 34.7214ZM36.45 35.075C36.45 34.9424 36.5027 34.8152 36.5965 34.7214L36.3136 34.4386C36.1448 34.6074 36.05 34.8363 36.05 35.075H36.45ZM36.45 35.625V35.075H36.05V35.625H36.45ZM36.2084 36.2084C36.3631 36.0536 36.45 35.8438 36.45 35.625H36.05C36.05 35.7377 36.0052 35.8458 35.9255 35.9255L36.2084 36.2084ZM35.625 36.45C35.8438 36.45 36.0537 36.3631 36.2084 36.2084L35.9255 35.9255C35.8458 36.0052 35.7377 36.05 35.625 36.05V36.45ZM35.0416 36.2084C35.1964 36.3631 35.4062 36.45 35.625 36.45V36.05C35.5123 36.05 35.4042 36.0052 35.3245 35.9255L35.0416 36.2084ZM34.8 35.625C34.8 35.8438 34.8869 36.0536 35.0416 36.2084L35.3245 35.9255C35.2448 35.8458 35.2 35.7377 35.2 35.625H34.8ZM34.8 35.075V35.625H35.2V35.075H34.8ZM34.9637 34.2522C34.8556 34.5131 34.8 34.7927 34.8 35.075H35.2C35.2 34.8452 35.2453 34.6176 35.3332 34.4053L34.9637 34.2522ZM35.4297 33.5547C35.2301 33.7544 35.0717 33.9914 34.9637 34.2522L35.3332 34.4053C35.4212 34.193 35.5501 34.0001 35.7126 33.8376L35.4297 33.5547ZM36.1272 33.0887C35.8664 33.1967 35.6294 33.3551 35.4297 33.5547L35.7126 33.8376C35.8751 33.6751 36.068 33.5462 36.2803 33.4582L36.1272 33.0887ZM36.95 32.925C36.6677 32.925 36.3881 32.9806 36.1272 33.0887L36.2803 33.4582C36.4926 33.3703 36.7202 33.325 36.95 33.325V32.925ZM37.425 32.925H36.95V33.325H37.425V32.925ZM38.9453 33.5547C38.5421 33.1515 37.9952 32.925 37.425 32.925V33.325C37.8891 33.325 38.3343 33.5094 38.6624 33.8376L38.9453 33.5547ZM39.575 35.075C39.575 34.5048 39.3485 33.9579 38.9453 33.5547L38.6624 33.8376C38.9906 34.1658 39.175 34.6109 39.175 35.075H39.575ZM39.4145 35.899C39.5223 35.6373 39.5768 35.3567 39.575 35.0737L39.175 35.0763C39.1765 35.3062 39.1322 35.5341 39.0446 35.7467L39.4145 35.899ZM38.9474 36.598C39.1479 36.3983 39.3068 36.1607 39.4145 35.899L39.0446 35.7467C38.9571 35.9593 38.8281 36.1523 38.6652 36.3145L38.9474 36.598ZM36.6475 38.8916L38.9475 36.5979L38.665 36.3146L36.365 38.6084L36.6475 38.8916ZM38.75 38.55H36.5063V38.95H38.75V38.55ZM39.3334 38.7916C39.1787 38.6369 38.9688 38.55 38.75 38.55V38.95C38.8627 38.95 38.9708 38.9948 39.0505 39.0745L39.3334 38.7916ZM39.575 39.375C39.575 39.1562 39.4881 38.9464 39.3334 38.7916L39.0505 39.0745C39.1302 39.1542 39.175 39.2623 39.175 39.375H39.575ZM39.3334 39.9584C39.4881 39.8036 39.575 39.5938 39.575 39.375H39.175C39.175 39.4877 39.1302 39.5958 39.0505 39.6755L39.3334 39.9584ZM38.75 40.2C38.9688 40.2 39.1787 40.1131 39.3334 39.9584L39.0505 39.6755C38.9708 39.7552 38.8627 39.8 38.75 39.8V40.2ZM41.2158 36.9092C41.7222 37.4155 42.4089 37.7 43.125 37.7V37.3C42.515 37.3 41.93 37.0577 41.4987 36.6263L41.2158 36.9092ZM40.425 35C40.425 35.7161 40.7095 36.4028 41.2158 36.9092L41.4987 36.6263C41.0673 36.195 40.825 35.61 40.825 35H40.425ZM40.425 33.75V35H40.825V33.75H40.425ZM40.6666 33.1666C40.5119 33.3214 40.425 33.5312 40.425 33.75H40.825C40.825 33.6373 40.8698 33.5292 40.9495 33.4495L40.6666 33.1666ZM41.25 32.925C41.0312 32.925 40.8214 33.0119 40.6666 33.1666L40.9495 33.4495C41.0292 33.3698 41.1373 33.325 41.25 33.325V32.925ZM41.8334 33.1666C41.6787 33.0119 41.4688 32.925 41.25 32.925V33.325C41.3627 33.325 41.4708 33.3698 41.5505 33.4495L41.8334 33.1666ZM42.075 33.75C42.075 33.5312 41.9881 33.3214 41.8334 33.1666L41.5505 33.4495C41.6302 33.5292 41.675 33.6373 41.675 33.75H42.075ZM42.075 35V33.75H41.675V35H42.075ZM42.3825 35.7425C42.1856 35.5455 42.075 35.2785 42.075 35H41.675C41.675 35.3846 41.8278 35.7534 42.0997 36.0253L42.3825 35.7425ZM43.125 36.05C42.8465 36.05 42.5795 35.9394 42.3825 35.7425L42.0997 36.0253C42.3716 36.2972 42.7404 36.45 43.125 36.45V36.05ZM43.75 36.05H43.125V36.45H43.75V36.05ZM43.55 33.75V36.25H43.95V33.75H43.55ZM43.7916 33.1666C43.6369 33.3214 43.55 33.5312 43.55 33.75H43.95C43.95 33.6373 43.9948 33.5292 44.0745 33.4495L43.7916 33.1666ZM44.375 32.925C44.1562 32.925 43.9464 33.0119 43.7916 33.1666L44.0745 33.4495C44.1542 33.3698 44.2623 33.325 44.375 33.325V32.925ZM44.9584 33.1666C44.8037 33.0119 44.5938 32.925 44.375 32.925V33.325C44.4877 33.325 44.5958 33.3698 44.6755 33.4495L44.9584 33.1666ZM45.2 33.75C45.2 33.5312 45.1131 33.3214 44.9584 33.1666L44.6755 33.4495C44.7552 33.5292 44.8 33.6373 44.8 33.75H45.2ZM45.2 36.875V33.75H44.8V36.875H45.2ZM45.2 36.8794L45.2 36.8756L44.8 36.8744L44.8 36.8782L45.2 36.8794ZM45.2 39.375V36.8788H44.8V39.375H45.2ZM44.9584 39.9584C45.1131 39.8036 45.2 39.5938 45.2 39.375H44.8C44.8 39.4877 44.7552 39.5958 44.6755 39.6755L44.9584 39.9584ZM44.375 40.2C44.5938 40.2 44.8036 40.1131 44.9584 39.9584L44.6755 39.6755C44.5958 39.7552 44.4877 39.8 44.375 39.8V40.2ZM43.7916 39.9584C43.9464 40.1131 44.1562 40.2 44.375 40.2V39.8C44.2623 39.8 44.1542 39.7552 44.0745 39.6755L43.7916 39.9584ZM43.55 39.375C43.55 39.5938 43.6369 39.8036 43.7916 39.9584L44.0745 39.6755C43.9948 39.5958 43.95 39.4877 43.95 39.375H43.55ZM43.55 37.5V39.375H43.95V37.5H43.55ZM43.125 37.7H43.75V37.3H43.125V37.7ZM35.3749 43.797C36.6715 44.6633 38.1838 45.1471 39.739 45.1959L39.7515 44.7961C38.2711 44.7497 36.8314 44.2891 35.5971 43.4644L35.3749 43.797ZM32.3087 40.0608C32.9388 41.582 34.0058 42.8822 35.3749 43.797L35.5971 43.4644C34.2938 42.5936 33.2781 41.3559 32.6783 39.9078L32.3087 40.0608ZM31.835 35.2509C31.5137 36.8658 31.6786 38.5396 32.3087 40.0608L32.6783 39.9078C32.0784 38.4597 31.9215 36.8662 32.2273 35.3289L31.835 35.2509ZM34.1133 30.9883C32.9491 32.1526 32.1562 33.636 31.835 35.2509L32.2273 35.3289C32.5331 33.7916 33.2879 32.3795 34.3962 31.2712L34.1133 30.9883ZM38.3759 28.71C36.761 29.0312 35.2776 29.8241 34.1133 30.9883L34.3962 31.2712C35.5045 30.1629 36.9166 29.4081 38.4539 29.1023L38.3759 28.71ZM43.1858 29.1837C41.6646 28.5536 39.9908 28.3887 38.3759 28.71L38.4539 29.1023C39.9912 28.7965 41.5847 28.9534 43.0328 29.5533L43.1858 29.1837ZM46.922 32.2499C46.0072 30.8808 44.707 29.8138 43.1858 29.1837L43.0328 29.5533C44.4809 30.1531 45.7186 31.1689 46.5894 32.4721L46.922 32.2499ZM48.325 36.875C48.325 35.2285 47.8368 33.6189 46.922 32.2499L46.5894 32.4721C47.4602 33.7754 47.925 35.3076 47.925 36.875H48.325ZM48.0834 37.4584C48.2381 37.3036 48.325 37.0938 48.325 36.875H47.925C47.925 36.9877 47.8802 37.0958 47.8005 37.1755L48.0834 37.4584ZM47.5 37.7C47.7188 37.7 47.9286 37.6131 48.0834 37.4584L47.8005 37.1755C47.7208 37.2552 47.6127 37.3 47.5 37.3V37.7ZM46.9166 37.4584C47.0714 37.6131 47.2812 37.7 47.5 37.7V37.3C47.3873 37.3 47.2792 37.2552 47.1995 37.1755L46.9166 37.4584ZM46.675 36.875C46.675 37.0938 46.7619 37.3036 46.9166 37.4584L47.1995 37.1755C47.1198 37.0958 47.075 36.9877 47.075 36.875H46.675ZM45.5501 33.1666C46.2835 34.2643 46.675 35.5548 46.675 36.875H47.075C47.075 35.4757 46.6601 34.1078 45.8827 32.9443L45.5501 33.1666ZM42.5544 30.7081C43.7741 31.2133 44.8166 32.0689 45.5501 33.1666L45.8827 32.9443C45.1052 31.7809 44.0003 30.874 42.7075 30.3386L42.5544 30.7081ZM38.6978 30.3283C39.9926 30.0707 41.3347 30.2029 42.5544 30.7081L42.7075 30.3386C41.4147 29.8031 39.9922 29.663 38.6197 29.9359L38.6978 30.3283ZM35.2801 32.1551C36.2136 31.2215 37.403 30.5858 38.6978 30.3283L38.6197 29.9359C37.2473 30.2089 35.9867 30.8828 34.9972 31.8722L35.2801 32.1551ZM33.4533 35.5728C33.7108 34.278 34.3465 33.0886 35.2801 32.1551L34.9972 31.8722C34.0078 32.8617 33.3339 34.1223 33.0609 35.4947L33.4533 35.5728ZM33.8331 39.4294C33.3279 38.2097 33.1957 36.8676 33.4533 35.5728L33.0609 35.4947C32.788 36.8672 32.9281 38.2897 33.4636 39.5825L33.8331 39.4294ZM36.2916 42.4251C35.1939 41.6916 34.3383 40.6491 33.8331 39.4294L33.4636 39.5825C33.999 40.8753 34.9059 41.9802 36.0693 42.7577L36.2916 42.4251ZM39.7438 43.5451C38.5134 43.4978 37.3182 43.111 36.2916 42.4251L36.0693 42.7577C37.1574 43.4847 38.4243 43.8947 39.7285 43.9448L39.7438 43.5451ZM39.8773 43.6032L39.0726 42.802L38.7903 43.0855L39.595 43.8867L39.8773 43.6032ZM39.0729 42.8023C38.9927 42.7221 38.9476 42.6134 38.9476 42.5H38.5476C38.5476 42.7195 38.6348 42.93 38.79 43.0852L39.0729 42.8023ZM38.9476 42.5C38.9476 42.3866 38.9927 42.2779 39.0729 42.1977L38.79 41.9148C38.6348 42.07 38.5476 42.2805 38.5476 42.5H38.9476ZM39.0729 42.1977C39.1531 42.1175 39.2618 42.0724 39.3752 42.0724V41.6724C39.1557 41.6724 38.9452 41.7596 38.79 41.9148L39.0729 42.1977ZM39.3752 42.0724C39.4886 42.0724 39.5973 42.1175 39.6775 42.1977L39.9604 41.9148C39.8052 41.7596 39.5947 41.6724 39.3752 41.6724V42.0724ZM39.6775 42.1977L41.5525 44.0727L41.8354 43.7898L39.9604 41.9148L39.6775 42.1977ZM41.5531 44.0732C41.5929 44.1128 41.6246 44.1598 41.6461 44.2116L42.0154 44.0577C41.9735 43.9572 41.9121 43.8659 41.8348 43.7892L41.5531 44.0732ZM41.6461 44.2116C41.6677 44.2633 41.6788 44.3189 41.6788 44.375H42.0788C42.0788 44.2661 42.0573 44.1583 42.0154 44.0577L41.6461 44.2116ZM41.6788 44.375C41.6788 44.4311 41.6677 44.4866 41.6461 44.5384L42.0154 44.6923C42.0573 44.5917 42.0788 44.4839 42.0788 44.375H41.6788ZM41.6461 44.5384C41.6246 44.5902 41.5929 44.6372 41.5531 44.6767L41.8348 44.9607C41.9121 44.8841 41.9735 44.7928 42.0154 44.6923L41.6461 44.5384ZM41.5525 44.6773L39.6775 46.5523L39.9604 46.8352L41.8354 44.9602L41.5525 44.6773ZM39.6781 46.5518C39.6384 46.5911 39.5913 46.6223 39.5395 46.6435L39.6908 47.0138C39.7913 46.9727 39.8827 46.9122 39.9598 46.8357L39.6781 46.5518ZM39.5395 46.6434C39.4877 46.6646 39.4323 46.6753 39.3764 46.675L39.374 47.075C39.4826 47.0756 39.5903 47.0548 39.6908 47.0138L39.5395 46.6434ZM39.374 46.675C39.3181 46.6753 39.2627 46.6646 39.2109 46.6434L39.0596 47.0138C39.1602 47.0548 39.2678 47.0756 39.3764 47.075L39.374 46.675ZM39.2109 46.6435C39.1591 46.6223 39.112 46.5911 39.0723 46.5518L38.7906 46.8357C38.8677 46.9122 38.9591 46.9727 39.0596 47.0138L39.2109 46.6435ZM39.0723 46.5517C39.0325 46.5122 39.0008 46.4652 38.9793 46.4134L38.61 46.5673C38.6519 46.6678 38.7133 46.7591 38.7906 46.8357L39.0723 46.5517ZM38.9793 46.4134C38.9577 46.3616 38.9466 46.3061 38.9466 46.25H38.5466C38.5466 46.3589 38.5681 46.4667 38.61 46.5673L38.9793 46.4134ZM38.9466 46.25C38.9466 46.1939 38.9577 46.1383 38.9793 46.0866L38.61 45.9327C38.5681 46.0333 38.5466 46.1411 38.5466 46.25H38.9466ZM38.9793 46.0866C39.0008 46.0348 39.0325 45.9878 39.0723 45.9482L38.7906 45.6642C38.7133 45.7409 38.6519 45.8322 38.61 45.9327L38.9793 46.0866ZM39.0726 45.948L39.8863 45.1377L39.6041 44.8543L38.7903 45.6645L39.0726 45.948Z" fill="white" mask="url(#path-2-outside-1_0_108)"/>
</svg>
