<svg width="80" height="80" viewBox="0 0 80 80" fill="none" xmlns="http://www.w3.org/2000/svg">
<rect width="80" height="80" rx="30" fill="#F37E7E"/>
<g clip-path="url(#clip0_0_98)">
<mask id="path-2-outside-1_0_98" maskUnits="userSpaceOnUse" x="23.9999" y="19" width="29" height="42" fill="black">
<rect fill="white" x="23.9999" y="19" width="29" height="42"/>
<path d="M33.2712 49.9546C33.1166 49.97 32.9744 50.0462 32.876 50.1664C32.7775 50.2867 32.7309 50.4411 32.7463 50.5957C32.7806 50.9407 32.8519 51.2811 32.959 51.6109C33.007 51.7587 33.1118 51.8813 33.2503 51.9518C33.3888 52.0224 33.5496 52.035 33.6974 51.9869C33.8452 51.9389 33.9679 51.8341 34.0384 51.6956C34.1089 51.5571 34.1215 51.3963 34.0735 51.2485C33.9924 50.9987 33.9383 50.7409 33.9123 50.4796C33.9048 50.403 33.8823 50.3286 33.846 50.2607C33.8096 50.1929 33.7603 50.1328 33.7007 50.0841C33.6412 50.0353 33.5726 49.9988 33.4989 49.9765C33.4252 49.9543 33.3478 49.9469 33.2712 49.9546ZM33.9764 46.8765C33.9069 46.8432 33.8317 46.824 33.7548 46.8199C33.678 46.8157 33.6011 46.8268 33.5286 46.8524C33.456 46.878 33.3892 46.9177 33.332 46.9691C33.2747 47.0205 33.2282 47.0828 33.195 47.1522C33.0455 47.465 32.93 47.793 32.8506 48.1305C32.833 48.2054 32.8304 48.2831 32.8428 48.359C32.8552 48.4349 32.8825 48.5077 32.923 48.5731C32.9635 48.6385 33.0165 48.6953 33.079 48.7402C33.1415 48.7851 33.2122 48.8173 33.2871 48.8349C33.362 48.8525 33.4397 48.8552 33.5156 48.8428C33.5916 48.8304 33.6643 48.8031 33.7297 48.7626C33.7951 48.722 33.8519 48.669 33.8968 48.6065C33.9418 48.5441 33.9739 48.4734 33.9915 48.3984C34.0516 48.1429 34.139 47.8946 34.2522 47.6579C34.2854 47.5884 34.3046 47.5132 34.3087 47.4363C34.3128 47.3595 34.3017 47.2826 34.2761 47.21C34.2505 47.1375 34.2108 47.0707 34.1594 47.0134C34.108 46.9562 34.0458 46.9096 33.9764 46.8765ZM36.551 45.0601C36.4938 44.9156 36.3816 44.7997 36.2391 44.7379C36.0965 44.6761 35.9352 44.6735 35.7907 44.7306C35.4684 44.8581 35.1607 45.0198 34.8728 45.2129C34.7438 45.2995 34.6544 45.4339 34.6244 45.5863C34.5944 45.7388 34.6262 45.897 34.7128 46.026C34.7994 46.155 34.9337 46.2444 35.0862 46.2744C35.2387 46.3044 35.3968 46.2726 35.5259 46.186C35.744 46.0396 35.9772 45.9171 36.2215 45.8204C36.293 45.7921 36.3583 45.75 36.4136 45.6965C36.4689 45.643 36.5131 45.5791 36.5437 45.5085C36.5743 45.4379 36.5907 45.362 36.5919 45.285C36.5932 45.2081 36.5793 45.1317 36.551 45.0601ZM33.8481 37.0349C34.0035 37.0349 34.1525 36.9732 34.2624 36.8633C34.3723 36.7534 34.434 36.6044 34.434 36.449C34.434 36.2936 34.3723 36.1445 34.2624 36.0347C34.1525 35.9248 34.0035 35.863 33.8481 35.863H32.9349C32.7795 35.863 32.6304 35.9248 32.5205 36.0347C32.4107 36.1445 32.3489 36.2936 32.3489 36.449C32.3489 36.6044 32.4107 36.7534 32.5205 36.8633C32.6304 36.9732 32.7795 37.0349 32.9349 37.0349H33.8481ZM34.3698 53.7531C34.6298 53.9818 34.9135 54.1822 35.216 54.3507C35.2833 54.3885 35.3573 54.4125 35.4339 54.4216C35.5105 54.4307 35.5881 54.4245 35.6623 54.4035C35.7365 54.3825 35.8058 54.3471 35.8663 54.2993C35.9267 54.2514 35.9772 54.1921 36.0147 54.1248C36.0522 54.0574 36.076 53.9833 36.0848 53.9067C36.0936 53.8301 36.0873 53.7525 36.066 53.6784C36.0448 53.6043 36.0091 53.535 35.9611 53.4747C35.9131 53.4144 35.8536 53.3642 35.7861 53.3269C35.5565 53.1989 35.3412 53.0468 35.1439 52.8732C35.0271 52.771 34.8746 52.7192 34.7198 52.7293C34.5649 52.7393 34.4204 52.8104 34.3179 52.9269C34.2154 53.0434 34.1633 53.1959 34.173 53.3507C34.1827 53.5056 34.2535 53.6503 34.3698 53.7531ZM29.7925 23.5156C29.8694 23.5156 29.9456 23.5005 30.0167 23.471C30.0878 23.4416 30.1524 23.3984 30.2068 23.344C30.2612 23.2896 30.3044 23.225 30.3338 23.1539C30.3633 23.0828 30.3784 23.0066 30.3784 22.9297C30.3789 22.4637 30.5643 22.0169 30.8938 21.6873C31.2234 21.3578 31.6702 21.1724 32.1362 21.1719H33.0972L33.7841 22.5445C33.9293 22.837 34.1535 23.083 34.4313 23.2547C34.7091 23.4263 35.0295 23.5167 35.3561 23.5156H45.8695C46.1961 23.5167 46.5164 23.4263 46.7943 23.2547C47.0721 23.083 47.2963 22.837 47.4415 22.5445L48.1284 21.1719H49.1675C49.6335 21.1724 50.0803 21.3578 50.4098 21.6873C50.7394 22.0169 50.9247 22.4637 50.9253 22.9297L51.0807 59.4141C51.0807 59.5695 51.1424 59.7185 51.2523 59.8284C51.3622 59.9383 51.5112 60 51.6666 60C51.822 60 51.971 59.9383 52.0809 59.8284C52.1908 59.7185 52.2525 59.5695 52.2525 59.4141L52.0971 22.9297C52.0963 22.153 51.7873 21.4083 51.2381 20.8591C50.6889 20.3098 49.9442 20.0009 49.1675 20H32.1362C31.3595 20.0009 30.6148 20.3098 30.0656 20.8591C29.5163 21.4083 29.2074 22.153 29.2065 22.9297C29.2065 23.0066 29.2217 23.0828 29.2511 23.1539C29.2806 23.225 29.3237 23.2896 29.3781 23.344C29.4325 23.3984 29.4971 23.4416 29.5682 23.471C29.6393 23.5005 29.7155 23.5156 29.7925 23.5156ZM46.818 21.1719L46.3935 22.02C46.3451 22.1175 46.2704 22.1995 46.1777 22.2568C46.0851 22.314 45.9784 22.3441 45.8695 22.3438H35.3561C35.2472 22.3441 35.1404 22.314 35.0478 22.2568C34.9552 22.1995 34.8805 22.1175 34.8321 22.02L34.4076 21.1719H46.818ZM37.6302 36.449C37.6302 36.372 37.6151 36.2958 37.5856 36.2247C37.5562 36.1536 37.513 36.0891 37.4586 36.0346C37.4042 35.9802 37.3396 35.9371 37.2685 35.9076C37.1974 35.8782 37.1212 35.863 37.0443 35.863H36.131C35.9756 35.863 35.8266 35.9248 35.7167 36.0347C35.6068 36.1445 35.5451 36.2936 35.5451 36.449C35.5451 36.6044 35.6068 36.7534 35.7167 36.8633C35.8266 36.9732 35.9756 37.0349 36.131 37.0349H37.0443C37.1212 37.0349 37.1974 37.0198 37.2685 36.9903C37.3396 36.9609 37.4042 36.9177 37.4586 36.8633C37.513 36.8089 37.5562 36.7443 37.5856 36.6732C37.6151 36.6021 37.6302 36.5259 37.6302 36.449ZM47.526 38.6798C47.4539 38.7066 47.3877 38.7473 47.3313 38.7997C47.275 38.852 47.2294 38.915 47.1974 38.9849C47.1653 39.0549 47.1474 39.1305 47.1445 39.2073C47.1417 39.2842 47.154 39.3609 47.1808 39.4331C47.2721 39.6792 47.3366 39.9345 47.3734 40.1944C47.3952 40.3483 47.4771 40.4872 47.6013 40.5806C47.7255 40.674 47.8817 40.7143 48.0356 40.6925C48.1894 40.6708 48.3283 40.5888 48.4218 40.4646C48.5152 40.3404 48.5554 40.1842 48.5337 40.0304C48.4852 39.6871 48.3999 39.35 48.2792 39.025C48.2525 38.9529 48.2118 38.8867 48.1594 38.8303C48.1071 38.7739 48.0441 38.7284 47.9742 38.6963C47.9042 38.6643 47.8286 38.6463 47.7517 38.6435C47.6748 38.6406 47.5981 38.653 47.526 38.6798ZM40.2612 41.7188C39.6818 41.7188 39.1154 41.8906 38.6336 42.2125C38.1518 42.5344 37.7763 42.992 37.5545 43.5273C37.3328 44.0626 37.2748 44.6517 37.3878 45.22C37.5009 45.7883 37.7799 46.3103 38.1896 46.72C38.5993 47.1298 39.1214 47.4088 39.6897 47.5218C40.258 47.6349 40.847 47.5769 41.3824 47.3551C41.9177 47.1334 42.3752 46.7579 42.6972 46.2761C43.0191 45.7943 43.1909 45.2279 43.1909 44.6484C43.19 43.8717 42.8811 43.127 42.3319 42.5778C41.7826 42.0286 41.0379 41.7196 40.2612 41.7188ZM40.2612 46.4062C39.9136 46.4062 39.5737 46.3032 39.2846 46.11C38.9956 45.9169 38.7703 45.6423 38.6372 45.3211C38.5042 44.9999 38.4694 44.6465 38.5372 44.3055C38.605 43.9645 38.7724 43.6513 39.0183 43.4055C39.2641 43.1596 39.5773 42.9922 39.9183 42.9244C40.2593 42.8566 40.6127 42.8914 40.9339 43.0244C41.2551 43.1575 41.5296 43.3828 41.7228 43.6718C41.9159 43.9609 42.019 44.3008 42.019 44.6484C42.0185 45.1145 41.8331 45.5613 41.5036 45.8908C41.174 46.2203 40.7273 46.4057 40.2612 46.4062ZM41.8012 53.7891H40.888C40.7326 53.7891 40.5835 53.8508 40.4736 53.9607C40.3638 54.0706 40.302 54.2196 40.302 54.375C40.302 54.5304 40.3638 54.6794 40.4736 54.7893C40.5835 54.8992 40.7326 54.9609 40.888 54.9609H41.8012C41.9566 54.9609 42.1056 54.8992 42.2155 54.7893C42.3254 54.6794 42.3871 54.5304 42.3871 54.375C42.3871 54.2196 42.3254 54.0706 42.2155 53.9607C42.1056 53.8508 41.9566 53.7891 41.8012 53.7891ZM29.7946 37.0349C29.8608 37.0347 29.9264 37.0233 29.9888 37.0012C30.0512 37.0234 30.1169 37.0348 30.1831 37.0349H30.6518C30.7722 37.0349 30.8896 36.9979 30.9881 36.9289C31.0867 36.8598 31.1615 36.7621 31.2026 36.649C31.2437 36.5359 31.2489 36.4129 31.2176 36.2968C31.1863 36.1806 31.12 36.0769 31.0277 35.9997C32.2992 34.586 34.5849 31.7206 34.5849 29.3907C34.5849 26.7973 32.4361 24.6875 29.7947 24.6875C29.174 24.685 28.559 24.8055 27.9853 25.0421C27.4115 25.2788 26.8903 25.6268 26.4519 26.0661C25.5781 26.9469 25.0625 28.1209 25.0051 29.3603C24.9308 30.7914 25.659 32.5014 27.1696 34.4429C27.8486 35.3134 28.5948 36.1293 29.4012 36.8832C29.5089 36.9809 29.6492 37.035 29.7946 37.0349ZM26.1755 29.4212C26.281 27.3906 27.8369 25.8594 29.7947 25.8594C31.7898 25.8594 33.4131 27.4435 33.4131 29.3907C33.4131 30.4654 32.7301 31.942 31.438 33.6609C30.9203 34.3449 30.3663 35.0005 29.7781 35.6248C28.4509 34.3109 26.0674 31.4993 26.1755 29.4212ZM31.7456 29.375C31.7456 28.9887 31.631 28.6111 31.4164 28.2899C31.2018 27.9687 30.8968 27.7184 30.5399 27.5705C30.183 27.4227 29.7903 27.384 29.4114 27.4594C29.0326 27.5348 28.6846 27.7208 28.4114 27.9939C28.1383 28.2671 27.9522 28.6151 27.8769 28.994C27.8015 29.3728 27.8402 29.7655 27.988 30.1224C28.1358 30.4793 28.3862 30.7844 28.7074 30.999C29.0286 31.2136 29.4062 31.3281 29.7925 31.3281C30.3103 31.3275 30.8067 31.1216 31.1729 30.7554C31.539 30.3893 31.745 29.8928 31.7456 29.375ZM29.0112 29.375C29.0112 29.2205 29.057 29.0694 29.1429 28.941C29.2287 28.8125 29.3507 28.7123 29.4935 28.6532C29.6363 28.5941 29.7933 28.5786 29.9449 28.6088C30.0964 28.6389 30.2356 28.7133 30.3449 28.8226C30.4542 28.9318 30.5286 29.071 30.5587 29.2226C30.5889 29.3741 30.5734 29.5312 30.5142 29.674C30.4551 29.8167 30.355 29.9387 30.2265 30.0246C30.098 30.1104 29.947 30.1562 29.7925 30.1562C29.5853 30.156 29.3868 30.0736 29.2403 29.9272C29.0939 29.7807 29.0115 29.5821 29.0112 29.375ZM46.8687 37.7671C46.9172 37.7073 46.9534 37.6386 46.9752 37.5648C46.9971 37.491 47.0043 37.4137 46.9962 37.3372C46.9882 37.2606 46.9652 37.1864 46.9285 37.1188C46.8918 37.0512 46.8421 36.9914 46.7824 36.943C46.5131 36.7249 46.2214 36.5362 45.912 36.3801C45.7733 36.3102 45.6125 36.2983 45.465 36.347C45.3175 36.3957 45.1953 36.5009 45.1254 36.6396C45.0554 36.7783 45.0434 36.9391 45.092 37.0866C45.1406 37.2341 45.2457 37.3563 45.3844 37.4264C45.619 37.5448 45.8403 37.688 46.0446 37.8535C46.1653 37.9513 46.32 37.9972 46.4746 37.981C46.6291 37.9648 46.7709 37.8878 46.8687 37.7671ZM51.6666 58.6565L32.1362 58.8281C31.6702 58.8276 31.2234 58.6422 30.8938 58.3127C30.5643 57.9831 30.3789 57.5364 30.3784 57.0703V38.7927C30.3784 38.6373 30.3167 38.4883 30.2068 38.3784C30.0969 38.2685 29.9479 38.2068 29.7925 38.2068C29.6371 38.2068 29.488 38.2685 29.3781 38.3784C29.2683 38.4883 29.2065 38.6373 29.2065 38.7927V57.0703C29.2074 57.847 29.5163 58.5917 30.0656 59.1409C30.6148 59.6902 31.3595 59.9991 32.1362 60L51.6666 59.8284C51.822 59.8284 51.971 59.7667 52.0809 59.6568C52.1908 59.5469 52.2525 59.3978 52.2525 59.2424C52.2525 59.087 52.1908 58.938 52.0809 58.8281C51.971 58.7182 51.822 58.6565 51.6666 58.6565ZM37.6918 54.9609H38.605C38.7604 54.9609 38.9095 54.8992 39.0193 54.7893C39.1292 54.6794 39.191 54.5304 39.191 54.375C39.191 54.2196 39.1292 54.0706 39.0193 53.9607C38.9095 53.8508 38.7604 53.7891 38.605 53.7891H37.6918C37.5364 53.7891 37.3874 53.8508 37.2775 53.9607C37.1676 54.0706 37.1059 54.2196 37.1059 54.375C37.1059 54.5304 37.1676 54.6794 37.2775 54.7893C37.3874 54.8992 37.5364 54.9609 37.6918 54.9609ZM46.8974 43.6298C46.9605 43.6738 47.0317 43.7049 47.1069 43.7214C47.182 43.7379 47.2597 43.7395 47.3355 43.7259C47.4112 43.7124 47.4836 43.6841 47.5484 43.6426C47.6132 43.6011 47.6692 43.5472 47.7131 43.484C47.9112 43.1996 48.0783 42.8948 48.2115 42.5748C48.2411 42.5038 48.2564 42.4276 48.2566 42.3506C48.2568 42.2736 48.2417 42.1974 48.2124 42.1262C48.1831 42.055 48.14 41.9903 48.0857 41.9358C48.0313 41.8813 47.9668 41.838 47.8957 41.8084C47.8246 41.7788 47.7484 41.7636 47.6714 41.7635C47.5944 41.7634 47.5182 41.7785 47.447 41.8079C47.3759 41.8372 47.3112 41.8804 47.2567 41.9348C47.2022 41.9892 47.159 42.0538 47.1295 42.1249C47.0286 42.3674 46.9019 42.5985 46.7517 42.814C46.7077 42.8772 46.6766 42.9483 46.6601 43.0235C46.6436 43.0987 46.6421 43.1763 46.6556 43.2521C46.6691 43.3278 46.6975 43.4002 46.7389 43.465C46.7804 43.5298 46.8343 43.5858 46.8974 43.6298ZM44.0226 36.449C44.0226 36.372 44.0074 36.2958 43.978 36.2247C43.9486 36.1536 43.9054 36.0891 43.851 36.0346C43.7966 35.9802 43.732 35.9371 43.6609 35.9076C43.5898 35.8782 43.5136 35.863 43.4366 35.863H42.5235C42.3681 35.863 42.219 35.9248 42.1092 36.0347C41.9993 36.1445 41.9375 36.2936 41.9375 36.449C41.9375 36.6044 41.9993 36.7534 42.1092 36.8633C42.219 36.9732 42.3681 37.0349 42.5235 37.0349H43.4366C43.5136 37.0349 43.5898 37.0198 43.6609 36.9903C43.732 36.9609 43.7966 36.9177 43.851 36.8633C43.9054 36.8089 43.9486 36.7443 43.978 36.6732C44.0074 36.6021 44.0226 36.5259 44.0226 36.449ZM40.2405 37.0349C40.3959 37.0349 40.5449 36.9732 40.6548 36.8633C40.7647 36.7534 40.8264 36.6044 40.8264 36.449C40.8264 36.2936 40.7647 36.1445 40.6548 36.0347C40.5449 35.9248 40.3959 35.863 40.2405 35.863H39.3273C39.1719 35.863 39.0229 35.9248 38.913 36.0347C38.8031 36.1445 38.7414 36.2936 38.7414 36.449C38.7414 36.6044 38.8031 36.7534 38.913 36.8633C39.0229 36.9732 39.1719 37.0349 39.3273 37.0349H40.2405ZM45.4619 30.4297V28.3203C45.4615 27.9786 45.3255 27.6509 45.0839 27.4092C44.8422 27.1676 44.5146 27.0316 44.1728 27.0312H37.1309C36.7891 27.0316 36.4615 27.1676 36.2198 27.4092C35.9782 27.6509 35.8422 27.9786 35.8418 28.3203V30.4297C35.8422 30.7714 35.9782 31.0991 36.2198 31.3408C36.4615 31.5824 36.7891 31.7184 37.1309 31.7188H44.1728C44.5146 31.7184 44.8422 31.5824 45.0839 31.3408C45.3255 31.0991 45.4615 30.7714 45.4619 30.4297ZM44.29 30.4297C44.29 30.4608 44.2776 30.4905 44.2556 30.5125C44.2337 30.5345 44.2039 30.5468 44.1728 30.5469H37.1309C37.0998 30.5468 37.07 30.5345 37.048 30.5125C37.0261 30.4905 37.0137 30.4608 37.0137 30.4297V28.3203C37.0137 28.2892 37.0261 28.2595 37.048 28.2375C37.07 28.2155 37.0998 28.2032 37.1309 28.2031H44.1728C44.2039 28.2032 44.2337 28.2155 44.2556 28.2375C44.2776 28.2595 44.29 28.2892 44.29 28.3203V30.4297ZM44.0842 54.9609H44.9974C45.1528 54.9609 45.3018 54.8992 45.4117 54.7893C45.5216 54.6794 45.5833 54.5304 45.5833 54.375C45.5833 54.2196 45.5216 54.0706 45.4117 53.9607C45.3018 53.8508 45.1528 53.7891 44.9974 53.7891H44.0842C43.9288 53.7891 43.7798 53.8508 43.6699 53.9607C43.56 54.0706 43.4983 54.2196 43.4983 54.375C43.4983 54.5304 43.56 54.6794 43.6699 54.7893C43.7798 54.8992 43.9288 54.9609 44.0842 54.9609ZM46.0344 44.3513C45.9698 44.2099 45.8517 44.1 45.7061 44.0457C45.5605 43.9914 45.3993 43.9972 45.2579 44.0617C45.0192 44.1708 44.7693 44.2538 44.5128 44.3093C44.4376 44.3256 44.3663 44.3565 44.303 44.4003C44.2398 44.4441 44.1857 44.4999 44.1441 44.5646C44.1024 44.6293 44.0738 44.7016 44.0601 44.7773C44.0463 44.853 44.0476 44.9307 44.0639 45.0059C44.0801 45.0811 44.111 45.1524 44.1548 45.2156C44.1986 45.2789 44.2545 45.3329 44.3192 45.3746C44.3838 45.4163 44.4561 45.4448 44.5318 45.4586C44.6075 45.4723 44.6852 45.471 44.7604 45.4548C45.0993 45.3814 45.4294 45.2718 45.7448 45.1277C45.8862 45.0631 45.9961 44.9451 46.0504 44.7995C46.1047 44.6538 46.0989 44.4926 46.0344 44.3513Z"/>
</mask>
<path d="M33.2712 49.9546C33.1166 49.97 32.9744 50.0462 32.876 50.1664C32.7775 50.2867 32.7309 50.4411 32.7463 50.5957C32.7806 50.9407 32.8519 51.2811 32.959 51.6109C33.007 51.7587 33.1118 51.8813 33.2503 51.9518C33.3888 52.0224 33.5496 52.035 33.6974 51.9869C33.8452 51.9389 33.9679 51.8341 34.0384 51.6956C34.1089 51.5571 34.1215 51.3963 34.0735 51.2485C33.9924 50.9987 33.9383 50.7409 33.9123 50.4796C33.9048 50.403 33.8823 50.3286 33.846 50.2607C33.8096 50.1929 33.7603 50.1328 33.7007 50.0841C33.6412 50.0353 33.5726 49.9988 33.4989 49.9765C33.4252 49.9543 33.3478 49.9469 33.2712 49.9546ZM33.9764 46.8765C33.9069 46.8432 33.8317 46.824 33.7548 46.8199C33.678 46.8157 33.6011 46.8268 33.5286 46.8524C33.456 46.878 33.3892 46.9177 33.332 46.9691C33.2747 47.0205 33.2282 47.0828 33.195 47.1522C33.0455 47.465 32.93 47.793 32.8506 48.1305C32.833 48.2054 32.8304 48.2831 32.8428 48.359C32.8552 48.4349 32.8825 48.5077 32.923 48.5731C32.9635 48.6385 33.0165 48.6953 33.079 48.7402C33.1415 48.7851 33.2122 48.8173 33.2871 48.8349C33.362 48.8525 33.4397 48.8552 33.5156 48.8428C33.5916 48.8304 33.6643 48.8031 33.7297 48.7626C33.7951 48.722 33.8519 48.669 33.8968 48.6065C33.9418 48.5441 33.9739 48.4734 33.9915 48.3984C34.0516 48.1429 34.139 47.8946 34.2522 47.6579C34.2854 47.5884 34.3046 47.5132 34.3087 47.4363C34.3128 47.3595 34.3017 47.2826 34.2761 47.21C34.2505 47.1375 34.2108 47.0707 34.1594 47.0134C34.108 46.9562 34.0458 46.9096 33.9764 46.8765ZM36.551 45.0601C36.4938 44.9156 36.3816 44.7997 36.2391 44.7379C36.0965 44.6761 35.9352 44.6735 35.7907 44.7306C35.4684 44.8581 35.1607 45.0198 34.8728 45.2129C34.7438 45.2995 34.6544 45.4339 34.6244 45.5863C34.5944 45.7388 34.6262 45.897 34.7128 46.026C34.7994 46.155 34.9337 46.2444 35.0862 46.2744C35.2387 46.3044 35.3968 46.2726 35.5259 46.186C35.744 46.0396 35.9772 45.9171 36.2215 45.8204C36.293 45.7921 36.3583 45.75 36.4136 45.6965C36.4689 45.643 36.5131 45.5791 36.5437 45.5085C36.5743 45.4379 36.5907 45.362 36.5919 45.285C36.5932 45.2081 36.5793 45.1317 36.551 45.0601ZM33.8481 37.0349C34.0035 37.0349 34.1525 36.9732 34.2624 36.8633C34.3723 36.7534 34.434 36.6044 34.434 36.449C34.434 36.2936 34.3723 36.1445 34.2624 36.0347C34.1525 35.9248 34.0035 35.863 33.8481 35.863H32.9349C32.7795 35.863 32.6304 35.9248 32.5205 36.0347C32.4107 36.1445 32.3489 36.2936 32.3489 36.449C32.3489 36.6044 32.4107 36.7534 32.5205 36.8633C32.6304 36.9732 32.7795 37.0349 32.9349 37.0349H33.8481ZM34.3698 53.7531C34.6298 53.9818 34.9135 54.1822 35.216 54.3507C35.2833 54.3885 35.3573 54.4125 35.4339 54.4216C35.5105 54.4307 35.5881 54.4245 35.6623 54.4035C35.7365 54.3825 35.8058 54.3471 35.8663 54.2993C35.9267 54.2514 35.9772 54.1921 36.0147 54.1248C36.0522 54.0574 36.076 53.9833 36.0848 53.9067C36.0936 53.8301 36.0873 53.7525 36.066 53.6784C36.0448 53.6043 36.0091 53.535 35.9611 53.4747C35.9131 53.4144 35.8536 53.3642 35.7861 53.3269C35.5565 53.1989 35.3412 53.0468 35.1439 52.8732C35.0271 52.771 34.8746 52.7192 34.7198 52.7293C34.5649 52.7393 34.4204 52.8104 34.3179 52.9269C34.2154 53.0434 34.1633 53.1959 34.173 53.3507C34.1827 53.5056 34.2535 53.6503 34.3698 53.7531ZM29.7925 23.5156C29.8694 23.5156 29.9456 23.5005 30.0167 23.471C30.0878 23.4416 30.1524 23.3984 30.2068 23.344C30.2612 23.2896 30.3044 23.225 30.3338 23.1539C30.3633 23.0828 30.3784 23.0066 30.3784 22.9297C30.3789 22.4637 30.5643 22.0169 30.8938 21.6873C31.2234 21.3578 31.6702 21.1724 32.1362 21.1719H33.0972L33.7841 22.5445C33.9293 22.837 34.1535 23.083 34.4313 23.2547C34.7091 23.4263 35.0295 23.5167 35.3561 23.5156H45.8695C46.1961 23.5167 46.5164 23.4263 46.7943 23.2547C47.0721 23.083 47.2963 22.837 47.4415 22.5445L48.1284 21.1719H49.1675C49.6335 21.1724 50.0803 21.3578 50.4098 21.6873C50.7394 22.0169 50.9247 22.4637 50.9253 22.9297L51.0807 59.4141C51.0807 59.5695 51.1424 59.7185 51.2523 59.8284C51.3622 59.9383 51.5112 60 51.6666 60C51.822 60 51.971 59.9383 52.0809 59.8284C52.1908 59.7185 52.2525 59.5695 52.2525 59.4141L52.0971 22.9297C52.0963 22.153 51.7873 21.4083 51.2381 20.8591C50.6889 20.3098 49.9442 20.0009 49.1675 20H32.1362C31.3595 20.0009 30.6148 20.3098 30.0656 20.8591C29.5163 21.4083 29.2074 22.153 29.2065 22.9297C29.2065 23.0066 29.2217 23.0828 29.2511 23.1539C29.2806 23.225 29.3237 23.2896 29.3781 23.344C29.4325 23.3984 29.4971 23.4416 29.5682 23.471C29.6393 23.5005 29.7155 23.5156 29.7925 23.5156ZM46.818 21.1719L46.3935 22.02C46.3451 22.1175 46.2704 22.1995 46.1777 22.2568C46.0851 22.314 45.9784 22.3441 45.8695 22.3438H35.3561C35.2472 22.3441 35.1404 22.314 35.0478 22.2568C34.9552 22.1995 34.8805 22.1175 34.8321 22.02L34.4076 21.1719H46.818ZM37.6302 36.449C37.6302 36.372 37.6151 36.2958 37.5856 36.2247C37.5562 36.1536 37.513 36.0891 37.4586 36.0346C37.4042 35.9802 37.3396 35.9371 37.2685 35.9076C37.1974 35.8782 37.1212 35.863 37.0443 35.863H36.131C35.9756 35.863 35.8266 35.9248 35.7167 36.0347C35.6068 36.1445 35.5451 36.2936 35.5451 36.449C35.5451 36.6044 35.6068 36.7534 35.7167 36.8633C35.8266 36.9732 35.9756 37.0349 36.131 37.0349H37.0443C37.1212 37.0349 37.1974 37.0198 37.2685 36.9903C37.3396 36.9609 37.4042 36.9177 37.4586 36.8633C37.513 36.8089 37.5562 36.7443 37.5856 36.6732C37.6151 36.6021 37.6302 36.5259 37.6302 36.449ZM47.526 38.6798C47.4539 38.7066 47.3877 38.7473 47.3313 38.7997C47.275 38.852 47.2294 38.915 47.1974 38.9849C47.1653 39.0549 47.1474 39.1305 47.1445 39.2073C47.1417 39.2842 47.154 39.3609 47.1808 39.4331C47.2721 39.6792 47.3366 39.9345 47.3734 40.1944C47.3952 40.3483 47.4771 40.4872 47.6013 40.5806C47.7255 40.674 47.8817 40.7143 48.0356 40.6925C48.1894 40.6708 48.3283 40.5888 48.4218 40.4646C48.5152 40.3404 48.5554 40.1842 48.5337 40.0304C48.4852 39.6871 48.3999 39.35 48.2792 39.025C48.2525 38.9529 48.2118 38.8867 48.1594 38.8303C48.1071 38.7739 48.0441 38.7284 47.9742 38.6963C47.9042 38.6643 47.8286 38.6463 47.7517 38.6435C47.6748 38.6406 47.5981 38.653 47.526 38.6798ZM40.2612 41.7188C39.6818 41.7188 39.1154 41.8906 38.6336 42.2125C38.1518 42.5344 37.7763 42.992 37.5545 43.5273C37.3328 44.0626 37.2748 44.6517 37.3878 45.22C37.5009 45.7883 37.7799 46.3103 38.1896 46.72C38.5993 47.1298 39.1214 47.4088 39.6897 47.5218C40.258 47.6349 40.847 47.5769 41.3824 47.3551C41.9177 47.1334 42.3752 46.7579 42.6972 46.2761C43.0191 45.7943 43.1909 45.2279 43.1909 44.6484C43.19 43.8717 42.8811 43.127 42.3319 42.5778C41.7826 42.0286 41.0379 41.7196 40.2612 41.7188ZM40.2612 46.4062C39.9136 46.4062 39.5737 46.3032 39.2846 46.11C38.9956 45.9169 38.7703 45.6423 38.6372 45.3211C38.5042 44.9999 38.4694 44.6465 38.5372 44.3055C38.605 43.9645 38.7724 43.6513 39.0183 43.4055C39.2641 43.1596 39.5773 42.9922 39.9183 42.9244C40.2593 42.8566 40.6127 42.8914 40.9339 43.0244C41.2551 43.1575 41.5296 43.3828 41.7228 43.6718C41.9159 43.9609 42.019 44.3008 42.019 44.6484C42.0185 45.1145 41.8331 45.5613 41.5036 45.8908C41.174 46.2203 40.7273 46.4057 40.2612 46.4062ZM41.8012 53.7891H40.888C40.7326 53.7891 40.5835 53.8508 40.4736 53.9607C40.3638 54.0706 40.302 54.2196 40.302 54.375C40.302 54.5304 40.3638 54.6794 40.4736 54.7893C40.5835 54.8992 40.7326 54.9609 40.888 54.9609H41.8012C41.9566 54.9609 42.1056 54.8992 42.2155 54.7893C42.3254 54.6794 42.3871 54.5304 42.3871 54.375C42.3871 54.2196 42.3254 54.0706 42.2155 53.9607C42.1056 53.8508 41.9566 53.7891 41.8012 53.7891ZM29.7946 37.0349C29.8608 37.0347 29.9264 37.0233 29.9888 37.0012C30.0512 37.0234 30.1169 37.0348 30.1831 37.0349H30.6518C30.7722 37.0349 30.8896 36.9979 30.9881 36.9289C31.0867 36.8598 31.1615 36.7621 31.2026 36.649C31.2437 36.5359 31.2489 36.4129 31.2176 36.2968C31.1863 36.1806 31.12 36.0769 31.0277 35.9997C32.2992 34.586 34.5849 31.7206 34.5849 29.3907C34.5849 26.7973 32.4361 24.6875 29.7947 24.6875C29.174 24.685 28.559 24.8055 27.9853 25.0421C27.4115 25.2788 26.8903 25.6268 26.4519 26.0661C25.5781 26.9469 25.0625 28.1209 25.0051 29.3603C24.9308 30.7914 25.659 32.5014 27.1696 34.4429C27.8486 35.3134 28.5948 36.1293 29.4012 36.8832C29.5089 36.9809 29.6492 37.035 29.7946 37.0349ZM26.1755 29.4212C26.281 27.3906 27.8369 25.8594 29.7947 25.8594C31.7898 25.8594 33.4131 27.4435 33.4131 29.3907C33.4131 30.4654 32.7301 31.942 31.438 33.6609C30.9203 34.3449 30.3663 35.0005 29.7781 35.6248C28.4509 34.3109 26.0674 31.4993 26.1755 29.4212ZM31.7456 29.375C31.7456 28.9887 31.631 28.6111 31.4164 28.2899C31.2018 27.9687 30.8968 27.7184 30.5399 27.5705C30.183 27.4227 29.7903 27.384 29.4114 27.4594C29.0326 27.5348 28.6846 27.7208 28.4114 27.9939C28.1383 28.2671 27.9522 28.6151 27.8769 28.994C27.8015 29.3728 27.8402 29.7655 27.988 30.1224C28.1358 30.4793 28.3862 30.7844 28.7074 30.999C29.0286 31.2136 29.4062 31.3281 29.7925 31.3281C30.3103 31.3275 30.8067 31.1216 31.1729 30.7554C31.539 30.3893 31.745 29.8928 31.7456 29.375ZM29.0112 29.375C29.0112 29.2205 29.057 29.0694 29.1429 28.941C29.2287 28.8125 29.3507 28.7123 29.4935 28.6532C29.6363 28.5941 29.7933 28.5786 29.9449 28.6088C30.0964 28.6389 30.2356 28.7133 30.3449 28.8226C30.4542 28.9318 30.5286 29.071 30.5587 29.2226C30.5889 29.3741 30.5734 29.5312 30.5142 29.674C30.4551 29.8167 30.355 29.9387 30.2265 30.0246C30.098 30.1104 29.947 30.1562 29.7925 30.1562C29.5853 30.156 29.3868 30.0736 29.2403 29.9272C29.0939 29.7807 29.0115 29.5821 29.0112 29.375ZM46.8687 37.7671C46.9172 37.7073 46.9534 37.6386 46.9752 37.5648C46.9971 37.491 47.0043 37.4137 46.9962 37.3372C46.9882 37.2606 46.9652 37.1864 46.9285 37.1188C46.8918 37.0512 46.8421 36.9914 46.7824 36.943C46.5131 36.7249 46.2214 36.5362 45.912 36.3801C45.7733 36.3102 45.6125 36.2983 45.465 36.347C45.3175 36.3957 45.1953 36.5009 45.1254 36.6396C45.0554 36.7783 45.0434 36.9391 45.092 37.0866C45.1406 37.2341 45.2457 37.3563 45.3844 37.4264C45.619 37.5448 45.8403 37.688 46.0446 37.8535C46.1653 37.9513 46.32 37.9972 46.4746 37.981C46.6291 37.9648 46.7709 37.8878 46.8687 37.7671ZM51.6666 58.6565L32.1362 58.8281C31.6702 58.8276 31.2234 58.6422 30.8938 58.3127C30.5643 57.9831 30.3789 57.5364 30.3784 57.0703V38.7927C30.3784 38.6373 30.3167 38.4883 30.2068 38.3784C30.0969 38.2685 29.9479 38.2068 29.7925 38.2068C29.6371 38.2068 29.488 38.2685 29.3781 38.3784C29.2683 38.4883 29.2065 38.6373 29.2065 38.7927V57.0703C29.2074 57.847 29.5163 58.5917 30.0656 59.1409C30.6148 59.6902 31.3595 59.9991 32.1362 60L51.6666 59.8284C51.822 59.8284 51.971 59.7667 52.0809 59.6568C52.1908 59.5469 52.2525 59.3978 52.2525 59.2424C52.2525 59.087 52.1908 58.938 52.0809 58.8281C51.971 58.7182 51.822 58.6565 51.6666 58.6565ZM37.6918 54.9609H38.605C38.7604 54.9609 38.9095 54.8992 39.0193 54.7893C39.1292 54.6794 39.191 54.5304 39.191 54.375C39.191 54.2196 39.1292 54.0706 39.0193 53.9607C38.9095 53.8508 38.7604 53.7891 38.605 53.7891H37.6918C37.5364 53.7891 37.3874 53.8508 37.2775 53.9607C37.1676 54.0706 37.1059 54.2196 37.1059 54.375C37.1059 54.5304 37.1676 54.6794 37.2775 54.7893C37.3874 54.8992 37.5364 54.9609 37.6918 54.9609ZM46.8974 43.6298C46.9605 43.6738 47.0317 43.7049 47.1069 43.7214C47.182 43.7379 47.2597 43.7395 47.3355 43.7259C47.4112 43.7124 47.4836 43.6841 47.5484 43.6426C47.6132 43.6011 47.6692 43.5472 47.7131 43.484C47.9112 43.1996 48.0783 42.8948 48.2115 42.5748C48.2411 42.5038 48.2564 42.4276 48.2566 42.3506C48.2568 42.2736 48.2417 42.1974 48.2124 42.1262C48.1831 42.055 48.14 41.9903 48.0857 41.9358C48.0313 41.8813 47.9668 41.838 47.8957 41.8084C47.8246 41.7788 47.7484 41.7636 47.6714 41.7635C47.5944 41.7634 47.5182 41.7785 47.447 41.8079C47.3759 41.8372 47.3112 41.8804 47.2567 41.9348C47.2022 41.9892 47.159 42.0538 47.1295 42.1249C47.0286 42.3674 46.9019 42.5985 46.7517 42.814C46.7077 42.8772 46.6766 42.9483 46.6601 43.0235C46.6436 43.0987 46.6421 43.1763 46.6556 43.2521C46.6691 43.3278 46.6975 43.4002 46.7389 43.465C46.7804 43.5298 46.8343 43.5858 46.8974 43.6298ZM44.0226 36.449C44.0226 36.372 44.0074 36.2958 43.978 36.2247C43.9486 36.1536 43.9054 36.0891 43.851 36.0346C43.7966 35.9802 43.732 35.9371 43.6609 35.9076C43.5898 35.8782 43.5136 35.863 43.4366 35.863H42.5235C42.3681 35.863 42.219 35.9248 42.1092 36.0347C41.9993 36.1445 41.9375 36.2936 41.9375 36.449C41.9375 36.6044 41.9993 36.7534 42.1092 36.8633C42.219 36.9732 42.3681 37.0349 42.5235 37.0349H43.4366C43.5136 37.0349 43.5898 37.0198 43.6609 36.9903C43.732 36.9609 43.7966 36.9177 43.851 36.8633C43.9054 36.8089 43.9486 36.7443 43.978 36.6732C44.0074 36.6021 44.0226 36.5259 44.0226 36.449ZM40.2405 37.0349C40.3959 37.0349 40.5449 36.9732 40.6548 36.8633C40.7647 36.7534 40.8264 36.6044 40.8264 36.449C40.8264 36.2936 40.7647 36.1445 40.6548 36.0347C40.5449 35.9248 40.3959 35.863 40.2405 35.863H39.3273C39.1719 35.863 39.0229 35.9248 38.913 36.0347C38.8031 36.1445 38.7414 36.2936 38.7414 36.449C38.7414 36.6044 38.8031 36.7534 38.913 36.8633C39.0229 36.9732 39.1719 37.0349 39.3273 37.0349H40.2405ZM45.4619 30.4297V28.3203C45.4615 27.9786 45.3255 27.6509 45.0839 27.4092C44.8422 27.1676 44.5146 27.0316 44.1728 27.0312H37.1309C36.7891 27.0316 36.4615 27.1676 36.2198 27.4092C35.9782 27.6509 35.8422 27.9786 35.8418 28.3203V30.4297C35.8422 30.7714 35.9782 31.0991 36.2198 31.3408C36.4615 31.5824 36.7891 31.7184 37.1309 31.7188H44.1728C44.5146 31.7184 44.8422 31.5824 45.0839 31.3408C45.3255 31.0991 45.4615 30.7714 45.4619 30.4297ZM44.29 30.4297C44.29 30.4608 44.2776 30.4905 44.2556 30.5125C44.2337 30.5345 44.2039 30.5468 44.1728 30.5469H37.1309C37.0998 30.5468 37.07 30.5345 37.048 30.5125C37.0261 30.4905 37.0137 30.4608 37.0137 30.4297V28.3203C37.0137 28.2892 37.0261 28.2595 37.048 28.2375C37.07 28.2155 37.0998 28.2032 37.1309 28.2031H44.1728C44.2039 28.2032 44.2337 28.2155 44.2556 28.2375C44.2776 28.2595 44.29 28.2892 44.29 28.3203V30.4297ZM44.0842 54.9609H44.9974C45.1528 54.9609 45.3018 54.8992 45.4117 54.7893C45.5216 54.6794 45.5833 54.5304 45.5833 54.375C45.5833 54.2196 45.5216 54.0706 45.4117 53.9607C45.3018 53.8508 45.1528 53.7891 44.9974 53.7891H44.0842C43.9288 53.7891 43.7798 53.8508 43.6699 53.9607C43.56 54.0706 43.4983 54.2196 43.4983 54.375C43.4983 54.5304 43.56 54.6794 43.6699 54.7893C43.7798 54.8992 43.9288 54.9609 44.0842 54.9609ZM46.0344 44.3513C45.9698 44.2099 45.8517 44.1 45.7061 44.0457C45.5605 43.9914 45.3993 43.9972 45.2579 44.0617C45.0192 44.1708 44.7693 44.2538 44.5128 44.3093C44.4376 44.3256 44.3663 44.3565 44.303 44.4003C44.2398 44.4441 44.1857 44.4999 44.1441 44.5646C44.1024 44.6293 44.0738 44.7016 44.0601 44.7773C44.0463 44.853 44.0476 44.9307 44.0639 45.0059C44.0801 45.0811 44.111 45.1524 44.1548 45.2156C44.1986 45.2789 44.2545 45.3329 44.3192 45.3746C44.3838 45.4163 44.4561 45.4448 44.5318 45.4586C44.6075 45.4723 44.6852 45.471 44.7604 45.4548C45.0993 45.3814 45.4294 45.2718 45.7448 45.1277C45.8862 45.0631 45.9961 44.9451 46.0504 44.7995C46.1047 44.6538 46.0989 44.4926 46.0344 44.3513Z" fill="white"/>
<path d="M33.2712 49.9546C33.1166 49.97 32.9744 50.0462 32.876 50.1664C32.7775 50.2867 32.7309 50.4411 32.7463 50.5957C32.7806 50.9407 32.8519 51.2811 32.959 51.6109C33.007 51.7587 33.1118 51.8813 33.2503 51.9518C33.3888 52.0224 33.5496 52.035 33.6974 51.9869C33.8452 51.9389 33.9679 51.8341 34.0384 51.6956C34.1089 51.5571 34.1215 51.3963 34.0735 51.2485C33.9924 50.9987 33.9383 50.7409 33.9123 50.4796C33.9048 50.403 33.8823 50.3286 33.846 50.2607C33.8096 50.1929 33.7603 50.1328 33.7007 50.0841C33.6412 50.0353 33.5726 49.9988 33.4989 49.9765C33.4252 49.9543 33.3478 49.9469 33.2712 49.9546ZM33.9764 46.8765C33.9069 46.8432 33.8317 46.824 33.7548 46.8199C33.678 46.8157 33.6011 46.8268 33.5286 46.8524C33.456 46.878 33.3892 46.9177 33.332 46.9691C33.2747 47.0205 33.2282 47.0828 33.195 47.1522C33.0455 47.465 32.93 47.793 32.8506 48.1305C32.833 48.2054 32.8304 48.2831 32.8428 48.359C32.8552 48.4349 32.8825 48.5077 32.923 48.5731C32.9635 48.6385 33.0165 48.6953 33.079 48.7402C33.1415 48.7851 33.2122 48.8173 33.2871 48.8349C33.362 48.8525 33.4397 48.8552 33.5156 48.8428C33.5916 48.8304 33.6643 48.8031 33.7297 48.7626C33.7951 48.722 33.8519 48.669 33.8968 48.6065C33.9418 48.5441 33.9739 48.4734 33.9915 48.3984C34.0516 48.1429 34.139 47.8946 34.2522 47.6579C34.2854 47.5884 34.3046 47.5132 34.3087 47.4363C34.3128 47.3595 34.3017 47.2826 34.2761 47.21C34.2505 47.1375 34.2108 47.0707 34.1594 47.0134C34.108 46.9562 34.0458 46.9096 33.9764 46.8765ZM36.551 45.0601C36.4938 44.9156 36.3816 44.7997 36.2391 44.7379C36.0965 44.6761 35.9352 44.6735 35.7907 44.7306C35.4684 44.8581 35.1607 45.0198 34.8728 45.2129C34.7438 45.2995 34.6544 45.4339 34.6244 45.5863C34.5944 45.7388 34.6262 45.897 34.7128 46.026C34.7994 46.155 34.9337 46.2444 35.0862 46.2744C35.2387 46.3044 35.3968 46.2726 35.5259 46.186C35.744 46.0396 35.9772 45.9171 36.2215 45.8204C36.293 45.7921 36.3583 45.75 36.4136 45.6965C36.4689 45.643 36.5131 45.5791 36.5437 45.5085C36.5743 45.4379 36.5907 45.362 36.5919 45.285C36.5932 45.2081 36.5793 45.1317 36.551 45.0601ZM33.8481 37.0349C34.0035 37.0349 34.1525 36.9732 34.2624 36.8633C34.3723 36.7534 34.434 36.6044 34.434 36.449C34.434 36.2936 34.3723 36.1445 34.2624 36.0347C34.1525 35.9248 34.0035 35.863 33.8481 35.863H32.9349C32.7795 35.863 32.6304 35.9248 32.5205 36.0347C32.4107 36.1445 32.3489 36.2936 32.3489 36.449C32.3489 36.6044 32.4107 36.7534 32.5205 36.8633C32.6304 36.9732 32.7795 37.0349 32.9349 37.0349H33.8481ZM34.3698 53.7531C34.6298 53.9818 34.9135 54.1822 35.216 54.3507C35.2833 54.3885 35.3573 54.4125 35.4339 54.4216C35.5105 54.4307 35.5881 54.4245 35.6623 54.4035C35.7365 54.3825 35.8058 54.3471 35.8663 54.2993C35.9267 54.2514 35.9772 54.1921 36.0147 54.1248C36.0522 54.0574 36.076 53.9833 36.0848 53.9067C36.0936 53.8301 36.0873 53.7525 36.066 53.6784C36.0448 53.6043 36.0091 53.535 35.9611 53.4747C35.9131 53.4144 35.8536 53.3642 35.7861 53.3269C35.5565 53.1989 35.3412 53.0468 35.1439 52.8732C35.0271 52.771 34.8746 52.7192 34.7198 52.7293C34.5649 52.7393 34.4204 52.8104 34.3179 52.9269C34.2154 53.0434 34.1633 53.1959 34.173 53.3507C34.1827 53.5056 34.2535 53.6503 34.3698 53.7531ZM29.7925 23.5156C29.8694 23.5156 29.9456 23.5005 30.0167 23.471C30.0878 23.4416 30.1524 23.3984 30.2068 23.344C30.2612 23.2896 30.3044 23.225 30.3338 23.1539C30.3633 23.0828 30.3784 23.0066 30.3784 22.9297C30.3789 22.4637 30.5643 22.0169 30.8938 21.6873C31.2234 21.3578 31.6702 21.1724 32.1362 21.1719H33.0972L33.7841 22.5445C33.9293 22.837 34.1535 23.083 34.4313 23.2547C34.7091 23.4263 35.0295 23.5167 35.3561 23.5156H45.8695C46.1961 23.5167 46.5164 23.4263 46.7943 23.2547C47.0721 23.083 47.2963 22.837 47.4415 22.5445L48.1284 21.1719H49.1675C49.6335 21.1724 50.0803 21.3578 50.4098 21.6873C50.7394 22.0169 50.9247 22.4637 50.9253 22.9297L51.0807 59.4141C51.0807 59.5695 51.1424 59.7185 51.2523 59.8284C51.3622 59.9383 51.5112 60 51.6666 60C51.822 60 51.971 59.9383 52.0809 59.8284C52.1908 59.7185 52.2525 59.5695 52.2525 59.4141L52.0971 22.9297C52.0963 22.153 51.7873 21.4083 51.2381 20.8591C50.6889 20.3098 49.9442 20.0009 49.1675 20H32.1362C31.3595 20.0009 30.6148 20.3098 30.0656 20.8591C29.5163 21.4083 29.2074 22.153 29.2065 22.9297C29.2065 23.0066 29.2217 23.0828 29.2511 23.1539C29.2806 23.225 29.3237 23.2896 29.3781 23.344C29.4325 23.3984 29.4971 23.4416 29.5682 23.471C29.6393 23.5005 29.7155 23.5156 29.7925 23.5156ZM46.818 21.1719L46.3935 22.02C46.3451 22.1175 46.2704 22.1995 46.1777 22.2568C46.0851 22.314 45.9784 22.3441 45.8695 22.3438H35.3561C35.2472 22.3441 35.1404 22.314 35.0478 22.2568C34.9552 22.1995 34.8805 22.1175 34.8321 22.02L34.4076 21.1719H46.818ZM37.6302 36.449C37.6302 36.372 37.6151 36.2958 37.5856 36.2247C37.5562 36.1536 37.513 36.0891 37.4586 36.0346C37.4042 35.9802 37.3396 35.9371 37.2685 35.9076C37.1974 35.8782 37.1212 35.863 37.0443 35.863H36.131C35.9756 35.863 35.8266 35.9248 35.7167 36.0347C35.6068 36.1445 35.5451 36.2936 35.5451 36.449C35.5451 36.6044 35.6068 36.7534 35.7167 36.8633C35.8266 36.9732 35.9756 37.0349 36.131 37.0349H37.0443C37.1212 37.0349 37.1974 37.0198 37.2685 36.9903C37.3396 36.9609 37.4042 36.9177 37.4586 36.8633C37.513 36.8089 37.5562 36.7443 37.5856 36.6732C37.6151 36.6021 37.6302 36.5259 37.6302 36.449ZM47.526 38.6798C47.4539 38.7066 47.3877 38.7473 47.3313 38.7997C47.275 38.852 47.2294 38.915 47.1974 38.9849C47.1653 39.0549 47.1474 39.1305 47.1445 39.2073C47.1417 39.2842 47.154 39.3609 47.1808 39.4331C47.2721 39.6792 47.3366 39.9345 47.3734 40.1944C47.3952 40.3483 47.4771 40.4872 47.6013 40.5806C47.7255 40.674 47.8817 40.7143 48.0356 40.6925C48.1894 40.6708 48.3283 40.5888 48.4218 40.4646C48.5152 40.3404 48.5554 40.1842 48.5337 40.0304C48.4852 39.6871 48.3999 39.35 48.2792 39.025C48.2525 38.9529 48.2118 38.8867 48.1594 38.8303C48.1071 38.7739 48.0441 38.7284 47.9742 38.6963C47.9042 38.6643 47.8286 38.6463 47.7517 38.6435C47.6748 38.6406 47.5981 38.653 47.526 38.6798ZM40.2612 41.7188C39.6818 41.7188 39.1154 41.8906 38.6336 42.2125C38.1518 42.5344 37.7763 42.992 37.5545 43.5273C37.3328 44.0626 37.2748 44.6517 37.3878 45.22C37.5009 45.7883 37.7799 46.3103 38.1896 46.72C38.5993 47.1298 39.1214 47.4088 39.6897 47.5218C40.258 47.6349 40.847 47.5769 41.3824 47.3551C41.9177 47.1334 42.3752 46.7579 42.6972 46.2761C43.0191 45.7943 43.1909 45.2279 43.1909 44.6484C43.19 43.8717 42.8811 43.127 42.3319 42.5778C41.7826 42.0286 41.0379 41.7196 40.2612 41.7188ZM40.2612 46.4062C39.9136 46.4062 39.5737 46.3032 39.2846 46.11C38.9956 45.9169 38.7703 45.6423 38.6372 45.3211C38.5042 44.9999 38.4694 44.6465 38.5372 44.3055C38.605 43.9645 38.7724 43.6513 39.0183 43.4055C39.2641 43.1596 39.5773 42.9922 39.9183 42.9244C40.2593 42.8566 40.6127 42.8914 40.9339 43.0244C41.2551 43.1575 41.5296 43.3828 41.7228 43.6718C41.9159 43.9609 42.019 44.3008 42.019 44.6484C42.0185 45.1145 41.8331 45.5613 41.5036 45.8908C41.174 46.2203 40.7273 46.4057 40.2612 46.4062ZM41.8012 53.7891H40.888C40.7326 53.7891 40.5835 53.8508 40.4736 53.9607C40.3638 54.0706 40.302 54.2196 40.302 54.375C40.302 54.5304 40.3638 54.6794 40.4736 54.7893C40.5835 54.8992 40.7326 54.9609 40.888 54.9609H41.8012C41.9566 54.9609 42.1056 54.8992 42.2155 54.7893C42.3254 54.6794 42.3871 54.5304 42.3871 54.375C42.3871 54.2196 42.3254 54.0706 42.2155 53.9607C42.1056 53.8508 41.9566 53.7891 41.8012 53.7891ZM29.7946 37.0349C29.8608 37.0347 29.9264 37.0233 29.9888 37.0012C30.0512 37.0234 30.1169 37.0348 30.1831 37.0349H30.6518C30.7722 37.0349 30.8896 36.9979 30.9881 36.9289C31.0867 36.8598 31.1615 36.7621 31.2026 36.649C31.2437 36.5359 31.2489 36.4129 31.2176 36.2968C31.1863 36.1806 31.12 36.0769 31.0277 35.9997C32.2992 34.586 34.5849 31.7206 34.5849 29.3907C34.5849 26.7973 32.4361 24.6875 29.7947 24.6875C29.174 24.685 28.559 24.8055 27.9853 25.0421C27.4115 25.2788 26.8903 25.6268 26.4519 26.0661C25.5781 26.9469 25.0625 28.1209 25.0051 29.3603C24.9308 30.7914 25.659 32.5014 27.1696 34.4429C27.8486 35.3134 28.5948 36.1293 29.4012 36.8832C29.5089 36.9809 29.6492 37.035 29.7946 37.0349ZM26.1755 29.4212C26.281 27.3906 27.8369 25.8594 29.7947 25.8594C31.7898 25.8594 33.4131 27.4435 33.4131 29.3907C33.4131 30.4654 32.7301 31.942 31.438 33.6609C30.9203 34.3449 30.3663 35.0005 29.7781 35.6248C28.4509 34.3109 26.0674 31.4993 26.1755 29.4212ZM31.7456 29.375C31.7456 28.9887 31.631 28.6111 31.4164 28.2899C31.2018 27.9687 30.8968 27.7184 30.5399 27.5705C30.183 27.4227 29.7903 27.384 29.4114 27.4594C29.0326 27.5348 28.6846 27.7208 28.4114 27.9939C28.1383 28.2671 27.9522 28.6151 27.8769 28.994C27.8015 29.3728 27.8402 29.7655 27.988 30.1224C28.1358 30.4793 28.3862 30.7844 28.7074 30.999C29.0286 31.2136 29.4062 31.3281 29.7925 31.3281C30.3103 31.3275 30.8067 31.1216 31.1729 30.7554C31.539 30.3893 31.745 29.8928 31.7456 29.375ZM29.0112 29.375C29.0112 29.2205 29.057 29.0694 29.1429 28.941C29.2287 28.8125 29.3507 28.7123 29.4935 28.6532C29.6363 28.5941 29.7933 28.5786 29.9449 28.6088C30.0964 28.6389 30.2356 28.7133 30.3449 28.8226C30.4542 28.9318 30.5286 29.071 30.5587 29.2226C30.5889 29.3741 30.5734 29.5312 30.5142 29.674C30.4551 29.8167 30.355 29.9387 30.2265 30.0246C30.098 30.1104 29.947 30.1562 29.7925 30.1562C29.5853 30.156 29.3868 30.0736 29.2403 29.9272C29.0939 29.7807 29.0115 29.5821 29.0112 29.375ZM46.8687 37.7671C46.9172 37.7073 46.9534 37.6386 46.9752 37.5648C46.9971 37.491 47.0043 37.4137 46.9962 37.3372C46.9882 37.2606 46.9652 37.1864 46.9285 37.1188C46.8918 37.0512 46.8421 36.9914 46.7824 36.943C46.5131 36.7249 46.2214 36.5362 45.912 36.3801C45.7733 36.3102 45.6125 36.2983 45.465 36.347C45.3175 36.3957 45.1953 36.5009 45.1254 36.6396C45.0554 36.7783 45.0434 36.9391 45.092 37.0866C45.1406 37.2341 45.2457 37.3563 45.3844 37.4264C45.619 37.5448 45.8403 37.688 46.0446 37.8535C46.1653 37.9513 46.32 37.9972 46.4746 37.981C46.6291 37.9648 46.7709 37.8878 46.8687 37.7671ZM51.6666 58.6565L32.1362 58.8281C31.6702 58.8276 31.2234 58.6422 30.8938 58.3127C30.5643 57.9831 30.3789 57.5364 30.3784 57.0703V38.7927C30.3784 38.6373 30.3167 38.4883 30.2068 38.3784C30.0969 38.2685 29.9479 38.2068 29.7925 38.2068C29.6371 38.2068 29.488 38.2685 29.3781 38.3784C29.2683 38.4883 29.2065 38.6373 29.2065 38.7927V57.0703C29.2074 57.847 29.5163 58.5917 30.0656 59.1409C30.6148 59.6902 31.3595 59.9991 32.1362 60L51.6666 59.8284C51.822 59.8284 51.971 59.7667 52.0809 59.6568C52.1908 59.5469 52.2525 59.3978 52.2525 59.2424C52.2525 59.087 52.1908 58.938 52.0809 58.8281C51.971 58.7182 51.822 58.6565 51.6666 58.6565ZM37.6918 54.9609H38.605C38.7604 54.9609 38.9095 54.8992 39.0193 54.7893C39.1292 54.6794 39.191 54.5304 39.191 54.375C39.191 54.2196 39.1292 54.0706 39.0193 53.9607C38.9095 53.8508 38.7604 53.7891 38.605 53.7891H37.6918C37.5364 53.7891 37.3874 53.8508 37.2775 53.9607C37.1676 54.0706 37.1059 54.2196 37.1059 54.375C37.1059 54.5304 37.1676 54.6794 37.2775 54.7893C37.3874 54.8992 37.5364 54.9609 37.6918 54.9609ZM46.8974 43.6298C46.9605 43.6738 47.0317 43.7049 47.1069 43.7214C47.182 43.7379 47.2597 43.7395 47.3355 43.7259C47.4112 43.7124 47.4836 43.6841 47.5484 43.6426C47.6132 43.6011 47.6692 43.5472 47.7131 43.484C47.9112 43.1996 48.0783 42.8948 48.2115 42.5748C48.2411 42.5038 48.2564 42.4276 48.2566 42.3506C48.2568 42.2736 48.2417 42.1974 48.2124 42.1262C48.1831 42.055 48.14 41.9903 48.0857 41.9358C48.0313 41.8813 47.9668 41.838 47.8957 41.8084C47.8246 41.7788 47.7484 41.7636 47.6714 41.7635C47.5944 41.7634 47.5182 41.7785 47.447 41.8079C47.3759 41.8372 47.3112 41.8804 47.2567 41.9348C47.2022 41.9892 47.159 42.0538 47.1295 42.1249C47.0286 42.3674 46.9019 42.5985 46.7517 42.814C46.7077 42.8772 46.6766 42.9483 46.6601 43.0235C46.6436 43.0987 46.6421 43.1763 46.6556 43.2521C46.6691 43.3278 46.6975 43.4002 46.7389 43.465C46.7804 43.5298 46.8343 43.5858 46.8974 43.6298ZM44.0226 36.449C44.0226 36.372 44.0074 36.2958 43.978 36.2247C43.9486 36.1536 43.9054 36.0891 43.851 36.0346C43.7966 35.9802 43.732 35.9371 43.6609 35.9076C43.5898 35.8782 43.5136 35.863 43.4366 35.863H42.5235C42.3681 35.863 42.219 35.9248 42.1092 36.0347C41.9993 36.1445 41.9375 36.2936 41.9375 36.449C41.9375 36.6044 41.9993 36.7534 42.1092 36.8633C42.219 36.9732 42.3681 37.0349 42.5235 37.0349H43.4366C43.5136 37.0349 43.5898 37.0198 43.6609 36.9903C43.732 36.9609 43.7966 36.9177 43.851 36.8633C43.9054 36.8089 43.9486 36.7443 43.978 36.6732C44.0074 36.6021 44.0226 36.5259 44.0226 36.449ZM40.2405 37.0349C40.3959 37.0349 40.5449 36.9732 40.6548 36.8633C40.7647 36.7534 40.8264 36.6044 40.8264 36.449C40.8264 36.2936 40.7647 36.1445 40.6548 36.0347C40.5449 35.9248 40.3959 35.863 40.2405 35.863H39.3273C39.1719 35.863 39.0229 35.9248 38.913 36.0347C38.8031 36.1445 38.7414 36.2936 38.7414 36.449C38.7414 36.6044 38.8031 36.7534 38.913 36.8633C39.0229 36.9732 39.1719 37.0349 39.3273 37.0349H40.2405ZM45.4619 30.4297V28.3203C45.4615 27.9786 45.3255 27.6509 45.0839 27.4092C44.8422 27.1676 44.5146 27.0316 44.1728 27.0312H37.1309C36.7891 27.0316 36.4615 27.1676 36.2198 27.4092C35.9782 27.6509 35.8422 27.9786 35.8418 28.3203V30.4297C35.8422 30.7714 35.9782 31.0991 36.2198 31.3408C36.4615 31.5824 36.7891 31.7184 37.1309 31.7188H44.1728C44.5146 31.7184 44.8422 31.5824 45.0839 31.3408C45.3255 31.0991 45.4615 30.7714 45.4619 30.4297ZM44.29 30.4297C44.29 30.4608 44.2776 30.4905 44.2556 30.5125C44.2337 30.5345 44.2039 30.5468 44.1728 30.5469H37.1309C37.0998 30.5468 37.07 30.5345 37.048 30.5125C37.0261 30.4905 37.0137 30.4608 37.0137 30.4297V28.3203C37.0137 28.2892 37.0261 28.2595 37.048 28.2375C37.07 28.2155 37.0998 28.2032 37.1309 28.2031H44.1728C44.2039 28.2032 44.2337 28.2155 44.2556 28.2375C44.2776 28.2595 44.29 28.2892 44.29 28.3203V30.4297ZM44.0842 54.9609H44.9974C45.1528 54.9609 45.3018 54.8992 45.4117 54.7893C45.5216 54.6794 45.5833 54.5304 45.5833 54.375C45.5833 54.2196 45.5216 54.0706 45.4117 53.9607C45.3018 53.8508 45.1528 53.7891 44.9974 53.7891H44.0842C43.9288 53.7891 43.7798 53.8508 43.6699 53.9607C43.56 54.0706 43.4983 54.2196 43.4983 54.375C43.4983 54.5304 43.56 54.6794 43.6699 54.7893C43.7798 54.8992 43.9288 54.9609 44.0842 54.9609ZM46.0344 44.3513C45.9698 44.2099 45.8517 44.1 45.7061 44.0457C45.5605 43.9914 45.3993 43.9972 45.2579 44.0617C45.0192 44.1708 44.7693 44.2538 44.5128 44.3093C44.4376 44.3256 44.3663 44.3565 44.303 44.4003C44.2398 44.4441 44.1857 44.4999 44.1441 44.5646C44.1024 44.6293 44.0738 44.7016 44.0601 44.7773C44.0463 44.853 44.0476 44.9307 44.0639 45.0059C44.0801 45.0811 44.111 45.1524 44.1548 45.2156C44.1986 45.2789 44.2545 45.3329 44.3192 45.3746C44.3838 45.4163 44.4561 45.4448 44.5318 45.4586C44.6075 45.4723 44.6852 45.471 44.7604 45.4548C45.0993 45.3814 45.4294 45.2718 45.7448 45.1277C45.8862 45.0631 45.9961 44.9451 46.0504 44.7995C46.1047 44.6538 46.0989 44.4926 46.0344 44.3513Z" stroke="white" stroke-width="0.5" mask="url(#path-2-outside-1_0_98)"/>
</g>
<defs>
<clipPath id="clip0_0_98">
<rect width="40" height="40" fill="white" transform="translate(20 20)"/>
</clipPath>
</defs>
</svg>
