<svg width="80" height="80" viewBox="0 0 80 80" fill="none" xmlns="http://www.w3.org/2000/svg">
<rect width="80" height="80" rx="30" fill="#7573EE"/>
<path d="M56.6709 25.0566C46.3169 25.415 40.599 20.2647 40.5421 20.2147C40.3926 20.0765 40.1985 20 39.9971 20C39.7958 20 39.6016 20.0765 39.4522 20.2147C39.3953 20.2647 33.6936 25.415 23.3233 25.0566C23.1319 25.0531 22.9454 25.1188 22.7966 25.2423C22.6478 25.3658 22.5463 25.5391 22.51 25.7317C22.4531 26.015 17.4834 53.9748 39.8019 59.9751C39.9356 60.0083 40.075 60.0083 40.2086 59.9751C62.519 53.9748 57.5494 26.015 57.4843 25.7317C57.4479 25.5391 57.3464 25.3658 57.1977 25.2423C57.0489 25.1188 56.8624 25.0531 56.6709 25.0566ZM39.9971 58.3C21.0215 53.0414 23.3233 31.0236 23.9822 26.74C32.9291 26.8317 38.3216 23.2065 39.9971 21.9065C41.6727 23.2065 47.1221 26.84 56.004 26.74C56.5896 30.9486 58.7369 53.0997 39.9971 58.3Z" fill="white"/>
<path d="M54.0699 28.2029C49.2499 28.0264 44.5553 26.6222 40.4323 24.1238C40.3027 24.0429 40.1529 24 40 24C39.8471 24 39.6973 24.0429 39.5677 24.1238C35.4511 26.6154 30.7654 28.0166 25.9546 28.1948C25.7588 28.2036 25.5727 28.2825 25.4304 28.4171C25.2881 28.5517 25.1991 28.7329 25.1797 28.9276C24.5598 35.5552 24.7229 51.4567 39.7635 55.9674C39.9181 56.0109 40.0819 56.0109 40.2365 55.9674C55.2771 51.4567 55.4402 35.5552 54.8203 28.9276C54.7998 28.7383 54.7136 28.5621 54.5765 28.4297C54.4394 28.2973 54.2601 28.2171 54.0699 28.2029ZM40.0245 54.339C26.8599 50.2679 26.2727 36.3206 26.7702 29.7825C31.4419 29.4973 35.9815 28.1224 40.0245 25.7685C44.0658 28.1261 48.6063 29.5012 53.2787 29.7825C53.7763 36.3206 53.189 50.2354 40.0245 54.339Z" fill="white"/>
<path d="M44.5243 36.2467L37.9531 42.8831L35.4801 40.3464C35.3158 40.1881 35.0976 40.0998 34.8707 40.0998C34.6437 40.0998 34.4255 40.1881 34.2613 40.3464C34.1785 40.4295 34.1128 40.5283 34.0679 40.6371C34.0231 40.746 34 40.8627 34 40.9806C34 41.0985 34.0231 41.2153 34.0679 41.3241C34.1128 41.433 34.1785 41.5317 34.2613 41.6148L37.3525 44.741C37.4351 44.8237 37.5329 44.8892 37.6406 44.9337C37.7482 44.9781 37.8634 45.0007 37.9796 45C38.0959 45.0007 38.2111 44.9781 38.3187 44.9337C38.4263 44.8892 38.5242 44.8237 38.6067 44.741L45.7432 37.5061C45.9077 37.3387 46 37.1124 46 36.8764C46 36.6404 45.9077 36.414 45.7432 36.2467C45.5789 36.0883 45.3607 36 45.1337 36C44.9068 36 44.6886 36.0883 44.5243 36.2467Z" fill="white"/>
</svg>
